/* XPM */
static char *fc8e2548d0834c1181bfcbb8e6177529Sq3ysrQtR6CnGL5i[] = {
/* columns rows colors chars-per-pixel */
"128 128 2 1 ",
"  c None",
". c #000001",
/* pixels */
"                              ............                                                                                      ",
"                         ......................                                                                                 ",
"                      .............................                                                                             ",
"                    ..................................                                                                          ",
"                  ......................................                                                               ....     ",
"                ...........................................                                                          ........   ",
"              ...............................................                                                       ..........  ",
"             ..................................................                                                   ............. ",
"           ......................................................                                                .............. ",
"          .........................................................                                             ................",
"         ............................................................                                          .................",
"       ...............................................................                                       ...................",
"      ..................................................................                                    ....................",
"     ......................................................................                                .....................",
"    ................................ ........................................                            ...................... ",
"   ..........................               ...................................                        ........................ ",
"  ........................                     ...................................                   .........................  ",
" .......................                          .....................................          ............................   ",
" .....................                              ........................................................................    ",
".....................                                  ...................................................................      ",
"...................                                      ................................................................       ",
"..................                                        ..............................................................        ",
".................                                           ...........................................................         ",
"...............                                               .......................................................           ",
" .............                                                  ....................................................            ",
" ............                                                     .................................................             ",
"  ..........                                                        .............................................               ",
"    ......                                                            .........................................                 ",
"                                                                         ....................................                   ",
"                                                                            ...............................                     ",
"                                                                               ..........................                       ",
"                                                                                   ..................                           ",
"                                                                                           ..                                   ",
"                                                                                                                                ",
"                                                                                                                                ",
"                                                                                                                                ",
"                               .........                                                                                        ",
"                          ....................                                                                                  ",
"                       ...........................                                                                              ",
"                    .................................                                                                           ",
"                  ......................................                                                                ..      ",
"                ..........................................                                                           ........   ",
"               .............................................                                                        ..........  ",
"             .................................................                                                     ............ ",
"            ....................................................                                                 .............. ",
"          ........................................................                                              ................",
"         ...........................................................                                           .................",
"        ..............................................................                                        ..................",
"      ..................................................................                                    ....................",
"     .....................................................................                                 .....................",
"    ........................................................................                             ...................... ",
"   ...........................             ....................................                        ........................ ",
"  .........................                   ....................................                   .........................  ",
" ........................                        ....................................             ...........................   ",
" ......................                             ........................................................................    ",
".....................                                 .....................................................................     ",
"....................                                    ..................................................................      ",
"..................                                        ..............................................................        ",
".................                                           ...........................................................         ",
"................                                              ........................................................          ",
" .............                                                  ....................................................            ",
" ............                                                     .................................................             ",
"  ..........                                                        .............................................               ",
"   ........                                                           ..........................................                ",
"      ..                                                                ......................................                  ",
"                                                                           .................................                    ",
"                                                                              ...........................                       ",
"                                                                                  ....................                          ",
"                                                                                        .........                               ",
"                                                                                                                                ",
"                                                                                                                                ",
"                                                                                                                                ",
"                                  ..                                                                                            ",
"                           ..................                                                                                   ",
"                       ..........................                                                                               ",
"                     ...............................                                                                            ",
"                   ....................................                                                                         ",
"                 ........................................                                                             ......    ",
"               .............................................                                                        ..........  ",
"             .................................................                                                     ............ ",
"            ....................................................                                                  ............. ",
"           .......................................................                                               ...............",
"         ...........................................................                                           .................",
"        ..............................................................                                        ..................",
"       ................................................................                                      ...................",
"     .....................................................................                                 .....................",
"    ........................................................................                              ..................... ",
"   ............................           ....................................                          ....................... ",
"  .........................                   ...................................                     ........................  ",
" ........................                        ...................................               ..........................   ",
" ......................                            .........................................................................    ",
".....................                                 .....................................................................     ",
"....................                                    ..................................................................      ",
"...................                                       ...............................................................       ",
".................                                          ............................................................         ",
"................                                             .........................................................          ",
" ..............                                                ......................................................           ",
" .............                                                   ..................................................             ",
"  ..........                                                       ...............................................              ",
"   ........                                                          ...........................................                ",
"     ....                                                               ......................................                  ",
"                                                                          ..................................                    ",
"                                                                             .............................                      ",
"                                                                                 ......................                         ",
"                                                                                      ............                              ",
"                                                                                                                                ",
"                                                                                                                                ",
"                                                                                                                                ",
"                                                                                                                                ",
"                                                                                                                                ",
"                                                                                                                                ",
"                                                                                                                                ",
"                                                                                                                                ",
"                                                                                                                                ",
"                                                                                                                                ",
"                                                                                                                                ",
"                                                                                                                                ",
"                                                                                                                                ",
"                                                                                                                                ",
"                                                                                                                                ",
"                                                                                                                                ",
"                                                                                                                                ",
"                                                                                                                                ",
"                                                                                                                                ",
"                                                                                                                                ",
"                                                                                                                                ",
"                                                                                                                                ",
"                                                                                                                                "
};
