/* XPM */
static char *_e68ea6ce1c74ceda66ba5420954508c1hKl0zF4XcymRrhy[] = {
/* columns rows colors chars-per-pixel */
"128 128 9 1 ",
"  c None",
". c black",
"X c #202020",
"o c #383030",
"O c #585048",
"+ c #888068",
"@ c #B0B098",
"# c #D0D8C8",
"$ c #F8F8F8",
/* pixels */
"                                                                                                                                ",
"                                              OOOO                                                                              ",
"              OOOO                          O+$$#@Oo                          OOOO                                              ",
"            O+$$#@Oo                       O@$$$$#@+o                       O+$$#@Oo                                            ",
"           O@$$$$#@+o                     O+#$$$$##++o                     O@$$$$#@+o                                           ",
"          O+#$$$$##++o                    O@##$$@@#@+o                    O+#$$$$##++o                                          ",
"          O@##$$@@#@+o                    O@#@##@##@+o                    O@##$$@@#@+o                                          ",
"          O@#@##@##@+o                    o+@@###@@+Oo                    O@#@##@##@+o                                          ",
"          o+@@###@@+Oo                    oO++##@+@+Oo                    o+@@###@@+Oo                                          ",
"          oO++##@+@+Oo                     oO++++++Oo                     oO++##@+@+Oo                                          ",
"           oO+OooO+Oo                      o+OOooOO+o                      oO+OooO+Oo                                           ",
"            oOoOOoOoooO                     o+o+Oo+o                     OoooOoOOoOo                                            ",
"           Oooo@+oooO+@o                 Ooo+oo@+oo+ooO                 o@++Ooo@+oooo                                           ",
"         OO+@@+$#+@#@+#O                o$@##@+$@+@##@$o                O#++#@@$@+@#+OO                                         ",
"        o$@#@+OO@OO+Oo+@O               O#o#@Oo@+Oo@#o#O               O@+oO+o+@+OO##@$o                                        ",
"        O#+@OO++$++OooO+o              O#+ooO@+$@O@Ooo+#O              o+OooO+##O@@O@+#O                                        ",
"       O#@oO+OoO@Oo+O.oOO              o+OoO@oo$+oo@OoO+o              OOo.O@o++Ooo@Oo@#O                                       ",
"       o$Oooo++@#++oo.oOo              O+o.oo+@@+++oo.o+O              oOo.oo+@@+++oooO$o                                       ",
"       O+o.oO+o@#oo+ooOOOo             oOo.o+oo#+oo+o.oOo             oOOOoo+o+#OoO+o.o+O                                       ",
"       oOo..ooo@Oooo  oO+o            O+O+o.ooo@Oooo.o+O+O            o+Oo  ooo@Oooo..oOo                                       ",
"      O@++oo+@+#+O+#o o+@o            o@+o.o#$O#+O$#o.o+@o            o@+o o+$O#O+@@oo++@O                                      ",
"      O#@o.oOo$$O##+o Ooo             o##o.o+O$$O$O+o.o##o             ooO o@@$#+$OOo.o@#O                                      ",
"      o##o.oO+o$$+OOo                  oOO.oO+o$#o+Oo.OOo                  oOOO$#+OOo.o##o                                      ",
"       oOOo+OXo++oX@+o                    o+@Xo++oX@+o                    o+@Xo++oXO+oOOo                                       ",
"          oOOo oo oO@o                    o+Oo oo oO+o                    o@Oo oo oOOo                                          ",
"          OOo      o$O                    OOo      oOO                    O$o      oOO                                          ",
"         oo+o      o+O                    o@o      o+o                    O+o      o+oo                                         ",
"        o@O+o      o@o                   oo#o      o@oo                   o@o      o+O@o                                        ",
"         o@++o     o#oo                 o@O+o     X+@o+o                 oo#o     o++@o                                         ",
"          oooO    X@$o+o                 o$#+o    X@$@o                 o+o$@X    Oooo                                          ",
"                  X$$#o                   oooO    OXoo                   o#$$X                                                  ",
"                  OXoo                                                    ooXO                                                  ",
"                                                                                                                                ",
"                                                                                                                                ",
"                                                                                                                                ",
"                                               OOOOOO                                                                           ",
"               OOOOOO                         O+@#$#+O                         OOOOOO                                           ",
"              O+@#$#+O                       O@##$$$#@O                       O+@#$#+O                                          ",
"             O@##$$$#@O                     O@####$#@@O                      O@##$$$#@O                                         ",
"            O@####$#@@O                     O@###@##$$#O                    O@####$#@@O                                         ",
"            O@###@##$$#O                    O@@@@@#$@X@o                    O@###@##$$#O                                        ",
"            O@@@@@#$@X@o                    o++O@O#@OX+o                    O@@@@@#$@X@o                                        ",
"            o++O@O#@OX+o                    oO+@@O$@oX+o                    o++O@O#@OX+o                                        ",
"            oO+@@O$@oX+o                     oOO++O$#+#X                    oO+@@O$@oX+o                                        ",
"             oOO+OO$#+#X                       XXOOXX$+X                     oOO+OO$#+#X                                        ",
"             oooOX+OX$+X                     ooO+X+OXXX                      oooOX+OX$+X                                        ",
"            o+@$O.X++Oo                     o@+$O.X@O$o                     o@@+O.X++Oo                                         ",
"           o@O$@#o.oO+o                    o#O+$@o.O@+o                    O$#+@$o.oO+o                                         ",
"           o+O#o+@o oo                     o@oO#o+o oo                     o@+o+$Oo oo                                          ",
"           O@o@+oo                         O#+o@oo                         O$@oO@o                                              ",
"           o+O$#O+o                        o+Oo$#Oo                        o+Ooo$#OO                                            ",
"           oOooo+$O                        oO@ooo+$O                       oO@+ooo+$O                                           ",
"            oOOoo+$O                        oOOo.o+$O                       oOOo..o+$O                                          ",
"            o+OOo@$o                        o+oOoo#$o                       oOoOooo#$o                                          ",
"             o+#$oO                          o#$#OoO                         O$#@OooO                                           ",
"            o+#Oo+o                         o#+oO@o                         o@oO+@o                                             ",
"            oOOo+O                          o+oO+O                          o+oOOo                                              ",
"             o+o+#O                          oo+#O                           oo#+Oo                                             ",
"             o@Oo$$O                           o$$O                          oO$$o+o                                            ",
"            o++o++o                           o++o                          o++oo+o                                             ",
"           o@Ooo@oo                          o@oo                          o+ooOOOoo                                            ",
"            o+o$+#+oO                       o$+#+oO                       o@@#+oo+@@o                                           ",
"             ooooO+#$O                       ooO+#$O                       ooO+#$ooo                                            ",
"                  ooo                           ooo                           ooo                                               ",
"                                                                                                                                ",
"                                              OOOO                                                                              ",
"              OOOO                          OO$$#@Oo                          OOOO                                              ",
"            OO$$#@Oo                       O@$$$$#@+o                       OO$$#@Oo                                            ",
"           O@$$$$#@+o                     O+##$$###@+o                     O@$$$$#@+o                                           ",
"          O+##$$###@+o                    O@##@#@@#@@o                    O+##$$###@+o                                          ",
"          O@##@#@@#@@o                    o+#$$@@$$#+o                    O@##@#@@#@@o                                          ",
"          o+#$$@@$$#+o                    o+$+X$$X+$+o                    o+#$$@@$$#+o                                          ",
"          o+$+X$$X+$+o                    oO+XX@@XX+Oo                    o+$+X$$X+$+o                                          ",
"          oO+XX@@XX+Oo                     o@Xo++oX@o                     oO+XX@@XX+Oo                                          ",
"           o@Xo++oX@o                      oO#@++@#Oo                      o@Xo++oX@o                                           ",
"           oO#@++@#OooO                     oOo$$oOo                     OooO#@++@#Oo                                           ",
"           oo+o$$o+oO@#o                 OooO+oooo+OooO                 o$@oo+o$$o+oo                                           ",
"         Oo+o+@oo@+o+O#o                o$@+o+$oo$+o+@$o                o#O#o+@oo@+oOoO                                         ",
"        o$@$+oO@@Oo+Oo++o               o#o$@o+##+o@#o#o               o++o#@oO@@Oo+@@$o                                        ",
"        o#o@$+oOOoO#o.O@O              O#O.o$OoOOoO#o.O#O              O@O.o$OoOOoO##o#o                                        ",
"       O#O.o+$$#O+#Oo.o+O              +$@ooO$#++$#Ooo@$+              O+o.oO#@+$$#+o.O#O                                       ",
"       +$@oo#OXXOXO+o.o@O              O@o.o#OXOOXO@o.o@O              O@o.o#OXOXXO@oo@$+                                       ",
"       O#o..o$#@X+@o.o@#o              o@o..o#@OO#@o..o@o              o#@o.o#OX##@o..o#O                                       ",
"       o$o.o@oooOXoO.O@#O              o$#o.OooOOooO.o#$o              O#@O.OooOXoo@o.o$o                                       ",
"       +$$oo##++OO@@o O+o              O#@Oo#$O++O$#oO@#O              o+O o@@OO++##oo$$+                                       ",
"       O$#Oo++#@@#$#o oo               o++ o@+$@@$+@o ++o               oo o#$#@@#++oO#$O                                       ",
"       o@+..oO+X+#+oo                   oo  o+@XX@+o  oo                   oo+#+X+Oo..+@o                                       ",
"        oo.o+Oo Xo+@o                      o@Xo  oX@o                      o@+oX oO+o.oo                                        ",
"          O#+o    o##O                    O$#o    o#$O                    O##o    o+#O                                          ",
"          o+o     o@$O                    o@o      o@o                    O$@o     o+o                                          ",
"          o++o     o#o                    o+o      o+o                    o#o     o++o                                          ",
"         o+O+X     o@o                    o@+o    o+@o                    o@o     X+O+o                                         ",
"         o@X@X    o@#o                   o@O#X    X#O@o                   o#@o    X@X@o                                         ",
"          o X     X$O$o                  o#X$X    X$X#o                  o$O$X     X o                                          ",
"                  X$X$o                   o X      X o                   o$X$X                                                  ",
"                   X o                                                    o X                                                   ",
"                                                                                                                                ",
"                                                                                                                                ",
"                                                                                                                                ",
"                                           OOOOOO                                                                               ",
"           OOOOOO                         O+#$#@+O                         OOOOOO                                               ",
"          O+#$#@+O                       O@#$$$##@O                       O+#$#@+O                                              ",
"         O@#$$$##@O                      O@@#$####@O                     O@#$$$##@O                                             ",
"         O@@#$####@O                    O#$$##@###@O                     O@@#$####@O                                            ",
"        O#$$##@###@O                    o@X@$#@@@@@O                    O#$$##@###@O                                            ",
"        o@X@$#@@@@@O                    o+XO@#O@O++o                    o@X@$#@@@@@O                                            ",
"        o+XO@#O@O++o                    o+Xo@$O@@+Oo                    o+XO@#O@O++o                                            ",
"        o+Xo@$O@@+Oo                    X#+#$O++OOo                     o+Xo@$O@@+Oo                                            ",
"        X#+#$OO+OOo                     X+$XXOOXX                       X#+#$OO+OOo                                             ",
"        X+$XO+XOooo                      XXXO+X+Ooo                     X+$XO+XOooo                                             ",
"         oO++X.O$@+o                     o$O@X.O$+@o                     oO++X.O+@@o                                            ",
"         o+Oo.o#@$O@o                    o+@O.o@$+O#o                    o+Oo.o$@+#$O                                           ",
"          oo o@+o#O+o                     oo o+o#Oo@o                     oo oO$+o+@o                                           ",
"              oo+@o@O                         oo@o+#O                         o@Oo@$O                                           ",
"             o+O#$O+o                        oO#$oO+o                       OO#$ooO+o                                           ",
"             O$+oooOo                       O$+ooo@Oo                      O$+ooo+@Oo                                           ",
"            O$+ooOOo                       O$+o.oOOo                      O$+o..oOOo                                            ",
"            o$@oOO+o                       o$#ooOo+o                      o$#oooOoOo                                            ",
"             Oo$#+o                         OoO#$#o                        OooO@#$O                                             ",
"             o+oO#+o                         o@Oo+#o                         o@+Oo@o                                            ",
"              O+oOOo                          O+Oo+o                          oOOo+o                                            ",
"             O#+o+o                           O#+oo                          oO+#oo                                             ",
"            O$$oO@o                          O$$o                           o+o$$Oo                                             ",
"             o++o++o                          o++o                           o+oo++o                                            ",
"             oo@ooO@o                          oo@o                         ooOOOoo+o                                           ",
"           Oo+#+$o+o                         Oo+#+$o                       o@@+oo+#@@o                                          ",
"          O$#+Ooooo                         O$#+Ooo                         ooo$#+Ooo                                           ",
"           ooo                               ooo                               ooo                                              "
};
