/* XPM */
static char *_19921b145c84ab0f4646d4c3319f375sIO35H3Hyp3C1qPN[] = {
/* columns rows colors chars-per-pixel */
"192 64 16 1 ",
"  c None",
". c #101010",
"X c #503818",
"o c #181868",
"O c #404060",
"+ c #B04820",
"@ c #F8D010",
"# c #C88058",
"$ c #202098",
"% c #6870A0",
"& c #2838D8",
"* c #6050E0",
"= c #E0B088",
"- c #E8D8B8",
"; c #A0B8D0",
": c #F8F8F8",
/* pixels */
"                                                                                                                                                                                                ",
"                                                                                                                                                                                                ",
"                                                                                                                                                                                                ",
"                                                                                                                                                                                                ",
"                                             oooooo                                                                                          ooooo                                              ",
"             ooo$oo                        o$&*%*&&$o                        oooooo                          ooooo                         oo&*%&o$$$                        ooooo              ",
"           o$&&*%*&$o                     o$oo$&$oo$$o                     o$*%*&&&$o                      oo&*%&o$$$                     .&*%&oo*%%*$                     oo&*%&o$$$           ",
"          o$oo$&$oo$$o                   o$o%%;o%;%%o$.                   o$oo$&$oo$$o                    .&*%&oo*%%*$                   .$**o$*%&oo$&$                   .&*%&oo*%%*$          ",
"         o$o%%;o%;%%o$.                  .o%:;:%;:;:%o.                  o$o%%;o%;%%o$.                  .$**o$*%&oo$&$                  .&&o&*&$o%;;%O                  .$**o$*%&oo$&$         ",
"         .o%:;:%;:;:%o.                 .o%:;:;O%;:;:%o.                 .o%:;:%;:;:%o.                  .&&o&*&$o%;;%O                 .o$.$&$oo%;:%:;%                 .&&o&*&$o%;%;O         ",
"        .o%;:%:O%;:%:%o.                .%;:%:%#+;:%:;%.                .o%:%:;O%::;:%o.                .o$.$&$oo%;:%:;%                .$oo$$O%;;::%;:%                .o$.$&$oo%;:;%;%        ",
"        .%;:;%:++%:;%;%.                .%;;O;%=+%;O;;%.                .%;%%:%#+:;%:;%.                .$oo$$O%;;:;+;:%                .$.$o%%;:%:;+%:%                .$oo$$O%;;%:;%:%        ",
"        .%;;%O;+#+%;O;%.                .%;%O%+==+%O%;%.                .%;%;%+=+;%%;;%.                .$.$o%%:;%:%#%:%                .o.o%;O;;O;%#O;O                .$.$o%%%:;%:%+:O        ",
"        .%;%OO%#=#+O%;%.                .$%O;.#--#.;O%$.                .%;O%+#=#%%O%;%.                .o.o%O;%O;%+=O;O                .o.%%XO%O;.#=+%O                .$.o%%;O;O%;%+;O        ",
"        .$%O;.#--#.;O%$.                 .+%:&#--#&:%+.                 .$%O;.#--#.;O%$.                .o.%%X%O%O.#=+%O                 .%;X=+O%:$#-#O                 .o.%%XO+X;.%=+          ",
"         .+%:&#--#&:%+.                  .-+:.====.:+-.                  .+%:&#--#&:%+.                  .%;X=X=%:$#-#O                  O;%X-#=;:.=-=+                  .%;X=+#%:$#-#O         ",
"         .-+:.====.:+-.                   .O#=----=#O.                   .-+:.====.:+-.                  O;%X-#=;:.=-=+                  O%O;X+#=----#+                  O;%X-#=;:.=-=+         ",
"         X.O#=----=#O.                     .X+#==#+X.                     .O#=----=#O.X                  O%O;X+#=----#+                  OO.%.XX+#==#X                   O%O;X+#==---#+         ",
"        X+O.X+#==#+X.X                    .O$..&&$.$O.                    X.X+#==#+X.O+X                 OO.O.XX+#==#X                      .X.O%.$XX                     O.%.XX+#==#X          ",
"        X#O%oo$&&&$X=-X                  .O%O#+&&&$$%O.                  X-=X.$&&$.$%O#X                  X=-XO.O$+XX#.                     ..O%O.+o                     .+$.$+..$$XX           ",
"         ..O$#X&&&$X#=X                 .O%O.X@+$$$.O%O.                 X=#X#X&&&$.O..                   X#=O%%.o#o++.                    X#.%O.o#$o                    .+&$+.O%%X=-X          ",
"          ..&+#+$&&.XX                  X-O.++X@++##.O-X                  XX.+#+$&&++.                   X+XX...o#X$o.                    X+O=-.o#X+o                     ..++&oOOX#=X          ",
"          .$+X+@++##+.                  X=#.&&X+@+#@X#=X                   .+X+#@+#@#+X                  X+##++X#X++o                     X#X#=X#+&&$o                     X#+&&$..XX           ",
"         X$$&&&#@+#@@+X                  X$$&%&+#@+@#XX                   .o&&&+#@+#@#X                  X##@@@@#$&&$o                    X##XX+@+&&$.                    X+##@#+#+$o           ",
"         ..$...+@#+@##X                  ..$$$$$+@#++o                    .$$$$$X....+X                  X+##@@#+&&&oXX                    X+#@@#X....                    .+###@@#$&...         ",
"          .++#+.##++XX                     oOOooo+XXo                      .XXXo.+#++.X                   ..X+++$$$.++#X                    ...OX..                      .+X.X+##+$.XX.         ",
"          .+XXX.++X..                     .X++.  .++X.                     .... .XXX+.                    .+XX.....X+X..                      .X+++.                     .X++X.....XX.          ",
"           ....  ...                      .....  .....                           ....                      ...     ...                         .....                      .....   ...           ",
"                                                                                                                                                                                                ",
"                                                                                                                                                                                                ",
"                                                                                                                                                                                                ",
"                                                                                                                                                                                                ",
"                                                                                                                                                                                                ",
"                                                                                                                                                                                                ",
"                                                                                                                                                                                                ",
"                                                                                                                                                                                                ",
"                                             oooooo                                                                                           ooooo                                             ",
"             oooooo                        oo&*%%*&oo                        oooooo                           ooooo                        $$$o&%*&oo                         ooooo             ",
"           oo&*%%*&oo                     o$&*%%%%*&$o                     oo&*%%*&oo                      $$$o&%*&oo                     $*%%*oo&%*&.                     $$$o&%*&oo           ",
"          o$&*%%%%*&$o                   .$&&**%%**&&$.                   o$&*%%%%*&$o                    $*%%*oo&%*&.                   $&$oo&%*$o**$.                   $*%%*oo&%*&.          ",
"         .$&&**%%**&&$.                  .$&&******&&$.                  .$&&**%%**&&$.                  $&$oo&%*$o**$.                  O%;;%o$&*&o&&.                  $&$oo&%*$o**$.         ",
"         .$&&******&&$.                 o.$$&&****&&$$.o                 .$&&******&&$.                  O%;;%o$&*&o&&.                 %;:%:;%oo$&$.$o.                 O;%;%o$&*&o&&.         ",
"        o.$$&&****&&$$.o                o$o$$&&&&&&$$o$o                o.$$&&****&&$$.o                %;:%:;%oo$&$.$o.                %:;%::;;%O$$oo$.                %;%;:;%oo$&$.$o.        ",
"        o$o$$&&&&&&$$o$o                .&.o$$$$$$$$o.&.                o$o$$&&&&&&$$o$o                %:;+;:;;%O$$oo$.                %:%+;:%:;%%o$.$.                %:%;:%;;%O$$oo$.        ",
"        .&.o$$$$$$$$o.&.                .&$.ooo$$ooo.$&.                .&.o$$$$$$$$o.&.                %:%#%:%;:%%o$.$.                O;O#%;O;;O;%o.o.                O:+%:%;:%%%o$.$.        ",
"        .&$.ooo$$ooo.$&.                 .&$..oooo..$&.                 .&$.ooo$$ooo.$&.                O;O=+%;O%;O%o.o.                O%+=#.;O%OX%%.o.                O;+%;%O;O;%%o.$.        ",
"         .&$..oooo..$&.                  ..&$$....$$&..                  .&$..oooo..$&.                 O%+=#.O%O%X%%.o.                 O#-#$:%O+=X;%.                   +=%.;X+OX%%.o.        ",
"         O.&$$....$$&..                  O;o.o$$$$o.o;O                  O.&$$....$$&..                  O#-#$:%=X=X;%.                  +=-=.:;=#-X%;O                  O#-#$:%#+=X;%.         ",
"         O;o.o$$$$o.o;O                  OOO%o....o%OOO                  O;o.o$$$$o.o;O                  +=-=.:;=#-X%;O                  +#----=#+X;O%O                  +=-=.:;=#-X%;O         ",
"          .O%o....o%OO                     .;O%O%O%;.                     OO%o....o%O.                   +#----=#+X;O%O                   X#==#+XX.%.OO                  +#---==#+X;O%O         ",
"         X#.;O%O%O%;.XX                   .$..;.;.$.O.                   XX.;O%O%O%;.#X                   X#==#+XX.O.OO                    XX$.%O.X.                      X#==#+XX.%.O          ",
"         X+O..;.;.+.X=-X                 .O%$$.&.X+O%O.                 X-=X..;.;.+.O+X                  .#XX+$O.OX-=X                      o+.O%O..                       XX$$..+$.$+.         ",
"          X.&$.$.+X$X#=X                .O%O.$&$X+X.O%O.                X=#X$&.$.+X$.X                   .++o#o.%%O=#X                     o$#o.O%.#X                     X-=X%%O.+$&+.         ",
"          .++XXX+X$$oXX                 X=O.+XXX+Xo+.O=X                 XXo+XX$X+X$$.                    .o$X#o...XX+X                    o+X#o.-=O+X                    X=#XOOo&++..          ",
"         X@##+X+X$+X$.                  X#X+##X+X.&&oX#X                   +@##X+X.+$.                     o++X#X++##+X                   o$&&+#X=#X#X                     XX..$&&+#X           ",
"         X##+X+X$&&&&o.                  X+@#X++X&&&$$X                   +@##+X+X&&&.                    o$&&$#@@@@##X                   .$&&+@+XX##X                     o$+#+#@##+X          ",
"          XXXX+X$$$$$$.                   o++X+X$$$$$..                   .X++X+Xoooo$.                  XXo&&&+#@@##+X                   ....X#@@#+X                    ...&$#@@###+.          ",
"          .X++.o..XXX.                     oO.X.ooOOo                     .o.X.Xo.++X..                 X#++.$$$+++X..                       ..XO...                     .XX.$+##+X.X+.         ",
"          .XXXX.  ...                     .XXX.  .XXX.                     .... .XXXX.                  ..X+X.....XX+.                      .+++X.                        .XX.....X++X.         ",
"           ....                           .....  .....                           ....                     ...     ...                       .....                          ...   .....          ",
"                                                                                                                                                                                                ",
"                                                                                                                                                                                                ",
"                                                                                                                                                                                                ",
"                                                                                                                                                                                                "
};
