/* XPM */
static char *bc2cb65e183e4ee2b88ebab3cb034f49KAjTDrviqDkPnYF4[] = {
/* columns rows colors chars-per-pixel */
"64 64 151 2 ",
"   c #2D3335",
".  c #2F3738",
"X  c #323637",
"o  c #323639",
"O  c #353A3C",
"+  c #393B3E",
"@  c #373D41",
"#  c #3B3D42",
"$  c #3B4144",
"%  c #3B4145",
"&  c #3B4044",
"*  c #3A4245",
"=  c #3D4044",
"-  c #3C4144",
";  c #3D4144",
":  c #3D4045",
">  c #3C4145",
",  c #3D4145",
"<  c #3E4044",
"1  c #3F4044",
"2  c #3E4144",
"3  c #3E4045",
"4  c #3F4045",
"5  c #3D4245",
"6  c #3E4244",
"7  c #3F4244",
"8  c #3E4245",
"9  c #3D4046",
"0  c #3D4047",
"q  c #3F4046",
"w  c #3E4146",
"e  c #3F4146",
"r  c #3F4147",
"t  c #3C4347",
"y  c #3E4246",
"u  c #3F4247",
"i  c #3D4546",
"p  c #3D4144",
"a  c #3D4048",
"s  c #3F4048",
"d  c #3D4248",
"f  c #3D4348",
"g  c #3D4349",
"h  c #3F4348",
"j  c #3F4349",
"k  c #3D424A",
"l  c #3F424A",
"z  c #3F434B",
"x  c #3D454A",
"c  c #3F444A",
"v  c #3E464B",
"b  c #3F464C",
"n  c #3F474C",
"m  c #3E4349",
"M  c #404143",
"N  c #404144",
"B  c #404344",
"V  c #404345",
"C  c #404246",
"Z  c #404247",
"A  c #414446",
"S  c #404547",
"D  c #404346",
"F  c #404149",
"G  c #404248",
"H  c #404348",
"J  c #404249",
"K  c #404349",
"L  c #40424A",
"P  c #40434A",
"I  c #41434A",
"U  c #40434B",
"Y  c #404448",
"T  c #404548",
"R  c #404648",
"E  c #404748",
"W  c #414649",
"Q  c #434649",
"!  c #41444A",
"~  c #40454A",
"^  c #40454B",
"/  c #42454B",
"(  c #41464A",
")  c #40474A",
"_  c #40474B",
"`  c #43464B",
"'  c #42474B",
"]  c #41454D",
"[  c #42454C",
"{  c #41464C",
"}  c #42464C",
"|  c #43474C",
" . c #42474E",
".. c #43474E",
"X. c #41444A",
"o. c #414849",
"O. c #42484A",
"+. c #43484B",
"@. c #434A4B",
"#. c #40484C",
"$. c #41484C",
"%. c #42484C",
"&. c #434A4C",
"*. c #44484C",
"=. c #45494C",
"-. c #454A4C",
";. c #464B4D",
":. c #45494E",
">. c #46494E",
",. c #46494F",
"<. c #454B4E",
"1. c #474B4E",
"2. c #474A4F",
"3. c #43494D",
"4. c #494D4E",
"5. c #454B50",
"6. c #454A51",
"7. c #464A50",
"8. c #474E53",
"9. c #474E54",
"0. c #444C51",
"q. c #484C50",
"w. c #484D50",
"e. c #484D51",
"r. c #494D51",
"t. c #484F50",
"y. c #4A4F51",
"u. c #494D52",
"i. c #484E52",
"p. c #494E52",
"a. c #484E53",
"s. c #484F53",
"d. c #4A4F53",
"f. c #494E52",
"g. c #4A5052",
"h. c #4B5152",
"j. c #4B5053",
"k. c #4B5153",
"l. c #4B5054",
"z. c #4A5154",
"x. c #4B5155",
"c. c #4C5054",
"v. c #4C5154",
"b. c #4C5155",
"n. c #4E5357",
"m. c #4B5255",
"M. c #4D5558",
"N. c #4E5558",
"B. c #4D5559",
"V. c #50575A",
"C. c #51585A",
/* pixels */
"s ] ] k # + # # s F ] # ] q q # # + O O & + 1 + O o   X o + o o + + + + o o o o O + + Q v.N.9.| k ] | 9.V.V.,.q # o o o + X + + ",
"# # # # + @ # # F F ] U F q M q # + O @ + * 1 # + o X o + + + + + + + + o + o # 1 i Q 4.j.j.0.| ] F ] 0.d.d.q.| 2 O O o X + + + ",
"# # # # @ @ @ # # L L U q q M # # @ # * * 2 # # + + O O + + @ # + o + o + o # s @.j.j.j.j.4.#.F F F F | <.q.x.x.&.* O . X X + + ",
"@ # # @ @ @ @ # s F L L C # M # # # 2 s i 2 2 2 1 1 + + o o o @ # # # + + # s F 4.j.j.j.@.i 2 ! F s s ] | 0.q.b.9.x # O X + + + ",
"# @ + O @ # # # + 1 B 7 # # # + + & i s F 2 2 2 1 1 1 @ o X   o @ # # # # F ,.2.<.| #.A i 7 1 i ! i E A #.<.q.q.x.s.n * + + M F ",
"# # + + o # # # M M 1 + 1 # + # $ & i c F 2 * 2 2 2 # # X       o + # # s F c.2.| 2 2 & * & & 7 A #.@.@.&.Q 1.q.j.x.8.&.+ # i ! ",
"1 1 # 1 # # # # + 1 1 M 1 & & # + & c s c c s 2 2 q M @ o       X o @ # [ ,.2.,.F s & + $ $ $ 7 E #.@.4.<.Q 4.q.8.q.z.9.&.c * * ",
"+ M M N # # # # & 1 1 2 2 1 & & $ & 2 i s c s F # # + O             o # ] ,.,.[ F C 2 M $ $ & * i E @.4.Q Q 4.Q ! <.9.B.B.0.c * ",
"+ 1 ! &.q # # # 1 1 2 q F q # q 1 1 M B 2 i k L # + o X       @       @ b ] ] ] ] F F s & 1 & & & M B Q Q Q A B 7 i &.x.B.9.0.n ",
"O 1 ! &.F # # # 2 2 F F F q q F 1 B + + # # # # # O o o @ @ @ @ @     @ @ # # ] # ] s s 1 1 1 7 & M + B Q A 1 + # i c 8.x.B.9.9.",
"O + s ! F 2 # q s x ] F C F F C i 2 # # # # # # # + + & x n 9.n k # @ o @ @ # # F F F F 1 1 C i 1 $ + + B 1 + + + & i | 8.9.B.M.",
"O O # # 2 s F q s x s s C F F F c c 2 # # @ + @ + B * n 9.B.B.9.6.] # # . @ # # F F F F ! A ! ! 1 1 # + # # # O $ & 1 2 n &.x.N.",
"+ + + + + # # q a s c ! F C ! ! F ! 2 2 M + + + B B Q q.9.B.B.9.6.] x a @ . @ @ s x b  . .0.#.A 2 2 # F 2 a # # # 2 2 2 i c #.1.",
"A i @ o O O + # # # c c C C ! ! C q c 2 M + + B Q =.q.d.9.9.9.9. .] | s @ @ @ @ a s b 6.0.0.&.A A 2 F F c s * # 2 2 C 2 2 2 C C ",
"x.<.i O o o O # # s c ! A C C 2 1 1 1 # + + q Q 8.x.x.9.9.9.9.n  .b ] | a * O . @ @ # # |  .| ! C C C F ! c F 2 ! A A C C # C M ",
"V.b.<.c # O O @ # # s c ! C 2 2 1 + + + + M Q q.q.x.9.9.9.n n n 6. .] | 0.c @ O o @ @ @ s x k F C A F ! &.! F C i ! ! C C M M M ",
"B.B.x.d.&.a @ O O $ M 2 c c & + + O O + + 2 q.q.u.,.,.&.&.x n 9.0.0.n 6.0.0.s @ o   o O & i i i A A ! &.0.| s 2 C ! ! F F C C B ",
"B.B.B.B.x.0.* + O O O & s i & + O o o + i <.d.d.,.] | x x 0.n 0.n 0.0.6. .0.&.i + o . o + 7 i i #.#.! n 0.0.! A C s 2 A ! 2 B B ",
"x.x.x.x.B.j.#.# . . . O * * @ O X o + 1 <.d.q.,.] ] n n x n 0.n 9.n 6.6.0.0.9.0.2 O . o O + i i &.#.c i &.0.&.F C F ! #.n ! A 7 ",
"d.9.0.9.d.x.q.i @ . . . O @ O . X O 1 #.d.q.<.| b n n 9.0.n n n b n  .,.| 0.z.z.&.* o . o O * v c 2 & 1 s 0.&.x s c c c ! ! i i ",
"| | | ! <.q.d.q.i * .         . O # <.q.d.0.&.| n n n n n n x x # # b b n 8.h.M.x.&.& . . O * i s & + + 2 c 0.| # ] k x c s * * ",
"F F F ! ! 0.b.b.t.i O         . # &.j.8.0.| | x 9.n n n 0.n v * # # # # n 9.8.9.x.s.n + . . @ * # O O + + i &.| ] # k k i 2 7 * ",
"F F s F ! &.8.x.h.t.B X       @ n s.s.8.&.! | &.9.n 9.n n n x & @ @ # k n 9.9.9.8.h.4.i @ . . . O O O + + 1 #.<.] # # # # 2 2 * ",
"C ! A c c n &.8.h.4.E + . X O i 4.s.0.! F ! x n n 9.n 9.n 0.* * k @ k k n n n n n 0.h.n .         O @ # # 1 ! | ] F # # * # 2 2 ",
"! A A #.c n #.#.4.4.#.i $ $ E 4.&.@.n 7 1 i c &.&.@.#.#.@.@.&.n n n b 0.b 0.b n ! &.&.a O         O 1 C M + s s q # & # 1 2 s s ",
"E #.#.#.| ! ! E #.E #.A E @.4.4.@.i * $ & 2 i ! n n E #.E #.0.0.9.n 0.0.0.b n n i 7 * @ .   . . . o & + + + # # q # & 2 2 i s ! ",
"E #.! #.F F q 1 C C B Q 4.t.4.@.i & $ O # & s c E E o.i #.#.0.n 9.0.0.0.n n n v i $ O O . O i i O O O O O o + # # 1 1 2 i A ! i ",
"A c ! c F q M 1 B + + B 4.t.@.i 7 & 1 + # # * s A #.E E n n n 0.n 9.0.b n v k k * O O X O x t.t.i O O X X + o + # # 2 s ! E #.! ",
"i ! s c 2 2 1 1 + + + 7 &.&.x * i 7 2 # # # # s n c c A c i c n 9.9.n 9.n v k @ O O + + @.s.z.z.t.n * O o o + + # # F k c c ! i ",
"F 2 2 s * # # @ + + 7 i &.&.x a n @.s # # @ # # c c c s 2 2 c c n n 9.n n v @ @ X + B @.s.z.z.9.h.h.#.7 + X X + # # # # c c F C ",
"F F # # # # # @ + 1 #.4.0.| x | 4.4.c # @ @ @ # i s F s 2 # # # x v n n x * @ . O 6 @.s.s.s.4.&.<.8.t.Q # X   o @ # # # * * 2 F ",
"C # 2 # # O # @ & #.h.n.8.x | 0.4.&.2 # @ # # 1 2 F s s # # @ @ @ k x x x @ @ @ 6 Q t.4.&.n #.! ! 4.j.4.F @ o o   @ O + # 2 i s ",
"s 1 1 + o X O # n s.M.M.9.| | ! #.7 # + # # # 2 2 s s i 6 O O + @ @ # 1 + O O + n 4.@.@.B A c ! ! &.8.8.q.| # O o o O O + 6 B i ",
"1 # + + X o O i 4.N.M.z.0.| s C 7 & 1 1 F F ] F s s c * + + O + . @ + + O O + A 4.j.@.E 7 7 2 F A ! | &.q.q.&.# o X X O + B i i ",
"s # + X + + & &.z.z.h.4.! s i 2 7 i i ! <.| i # # # 7 * 6 O + + @ + O o O + #.4.s.&.E 7 7 1 1 2 F F s | ,.q.q.<.# o o X O $ i @.",
"# # o + + B 4.j.z.h.&.! A s 1 1 E i | x | ] 1 M # s i B * E B B * + O O + i s.j.4.#.i 7 7 1 1 2 F s s ] [ 0.q.q.Q 1 o X o $ & c ",
"# # o # @.v.N.n.z.4.i i M M M M A ! &.#.* * $ $ s c x &.@.@.@.o.& + O + i 8.z.8.| 2 * & q q q F F C F F | | | q.4.@.+ O o O + + ",
"o # s 2.N.C.C.h.&.i * $ M + + M 2 c c ! i $ + + c &.0.0.4.@.@.E + O & * h.z.s.n 2 + # & # q q q F F F s k s ] <.t.t.@.6 O o o o ",
"O M Q c.C.C.x.0.i & $ + + $ + # & & 2 c @.i + & c 0.0.x i i * O O & n 4.8.0.&.c M + + # q q F F q F q s s * s | 4.t.t.@.* O o . ",
"o + Q y.b.x.8.| 2 & + $ # + 1 * + # & ! @.n * O * x s * + X X . O i 4.s.0.0.&.i + + + + # C C C F F F 2 * & i 2 n 4.4.@.* O o . ",
"o O O i n &.&.k F # # # q # # 2 & + & i #.Q $ O . O @ . O . X O i 0.t.t.&.&.0.#.1 O + # i F F F F C i i $ $ + M 1 i | s # O O & ",
"O O . O & & c s F F F F q F s 2 & & + * #.E $ O           O O E 0.t.0.n i i &.n i 1 1 C c c ! s # i i i $ $ M $ 1 * # # O O * v ",
"x &   . O # # # # F F # # # s # + + + * 7 i i $ .       . @ o.4.4.@.i i 7 i E #.| | #.! c c s 2 2 * B * + 6 $ M & # # @ O * n h.",
"8.x O . o O O # q F F F # 2 2 * * * * + + 7 i i * . O O + i @.t.@.E B 6 $ 1 i #.| 0.<.<.&.c 2 2 # * + 6 6 + & 1 # # O O * i h.C.",
"B.q.2 O O O X # # q q q 1 + + M # # # # + # 2 i x a x n 4.4.4.#.i B $ M + $ & i s | | | F s 2 & 2 2 # & 1 M 1 1 + + O * i t.z.M.",
"N.q.<.C + O o o + M q # 1 B + + + + + + @ + # * s &.8.x.j.4.Q A + 6 M 1 $ $ * 2 s s F F F i i 2 s 2 & # + # + + @ O * i t.t.t.t.",
"=.4.4.4.C # O o O + # 1 & $ + M M # # O + O O # C <.v.n.4.Q B 1 B + i 1 M & 1 2 s s F 2 ! i A A C B M + # + + + + * n t.h.0.n v ",
"M =.4.v.1.F # O o O + 1 + $ M M M # # @ o O O # Q 4.h.4.4.E B 1 $ 6 7 7 1 1 2 s s ! F ! ! #.#.#.C # B # + O o O + i h.z.8.i i * ",
"M M -.4.j.q.#.$ o o O + $ 1 1 1 * # # # o X O * @.h.4.@.E A E i # q q q F F F 2 s ] k n | | 0.F 1 M # # + X X O # 0.N.N.Q A B M ",
"M M B 4.t.N.s.#.& o o O + # 1 1 2 # # O o o * o.4.4.4.Q A A A A F F F F C C F ! ! |  .n  .0.| F # + + + O o X + c 8.b.q.@.A M 1 ",
"+ + + B Q q.x.j.n & O O O # # 2 * # + O O & i 4.4.Q B E F ! F F F F q F F F c #.n &.6.6.6.0.F 1 1 + + + o X O 2 8.x.q.<.#.A B B ",
"+ + 6 6 A #.j.v.4.n + . O O # # # # & & * #.t.j.Q Q ! ! F F C C q F F F C F c c n 0.0.6.0.s 1 # 1 1 + o o O # <.q.q.4.| ! ! C C ",
"M + # & 1 A @.v.x.s.c + O O O O # # * n 8.d.d.0.Q Q F F F F F F F F F q F ! c &.&.0.0.0.F q # 1 1 # + O O 1 <.q.q.@.#.A #.#.#.A ",
"A B * 1 1 C ! 4.j.x.4.! # O o o o @ &.8.q.d.q.,.F C F F F F C ! F C C I F ! ! n x &.0.x # # # 1 # + + + q Q d.q.4.#.! #.! ! ! i ",
"#.c 2 2 2 C F #.8.s.x.8.! # o   . $ @.j.q.4.q.| Q C q F F Z Z A #.! ! C F F ! #.n ! F 2 @ + # + + + + + =.d.q.0.#.! n E c ! ! A ",
"#.A F F C C F ! #.8.j.j.4.i + X . + i 4.Q ! | Q I C q Z M Z Q ! #.! ! C C i A #.#.| c # # + O O o + + M ,.r.q.| A #.! c ! F F s ",
"i 2 2 2 F s ! F ! ! <.q.v.4.B + O O $ 6 7 B C C C q C C c c | &.@.#.x # # # ] |  . .s # O O O o X + + M A Q B E ! ! c c c s s F ",
"1 2 2 1 i ! c x c A A Q 4.v.4.Q 7 O O + + 1 q # q C F F A c &.&.#.c @ + @ # # s ] ] a @ O O o o X X + + # M B 6 2 2 i i 2 2 2 F ",
"& $ & 7 c ! x | F 2 # B Q 4.h.4.#.1 + o + @ # # q q F F n #.&.&.n & o . o @ # # # # # O o X   o + X o o O + 6 6 * & & * * * s s ",
"+ + & 1 i #.0.| ! 2 # M M =.h.N.j.E M + o + O # # # 2 C A #.| ! 2 & O O o o @ # # @ # @ X   O @ M M + o o O + + # & $ + # # # 2 ",
"+ @ # 2 E #.4. .] q 1 1 M @.t.N.c.4.M X o X o + # # # s s F F # # # # # O o O O O O O @ . o # i @.4.B + X X + + M + $ & # @ # # ",
"# # # s #.Q &.&.F C 2 B Q @.4.t.c.M + + X + X + + # # # s # q q # # ] # # O o o     . . o + c 8.h.h.4.B + X + + + $ & & # # + @ ",
"# # # | E #.Q #.F F B B E o.@.#.M M + + + X + o o + # # s # # U # # # # @ O o       . . @ x j.B.B.B.N.4.B + O O O $ c ! # # # + ",
"# # # s E E #.! A C M B E o.E 7 M + X X + X o o o o # + # s U U ] # # # @ O o .       . a 0.B.C.C.C.C.v.o.B O . O @ ! <.A # # @ "
};
