/* XPM */
static char *d90172481b344783fb6fe6954504aa54qrg4WRZBm9gWrKa4[] = {
/* columns rows colors chars-per-pixel */
"64 64 141 2 ",
"   c #2C2D32",
".  c #2F3035",
"X  c #303237",
"o  c #33353A",
"O  c #36393D",
"+  c #383B3F",
"@  c #3B3E42",
"#  c #3E4145",
"$  c #3F4448",
"%  c #404347",
"&  c #424549",
"*  c #45494D",
"=  c #484B4F",
"-  c #474C50",
";  c #494E52",
":  c #4D5255",
">  c #4F5458",
",  c #505357",
"<  c #515659",
"1  c #555A5D",
"2  c #585C5F",
"3  c #5A5E61",
"4  c #5A5E62",
"5  c #5B5E62",
"6  c #5A5F62",
"7  c #5B5F62",
"8  c #595D60",
"9  c #5C5E62",
"0  c #595E61",
"q  c #5B6062",
"w  c #5B6063",
"e  c #5C6062",
"r  c #5C6063",
"t  c #5C6064",
"y  c #5C6164",
"u  c #5D6164",
"i  c #5D6165",
"p  c #5E6165",
"a  c #5D6264",
"s  c #5D6265",
"d  c #5E6265",
"f  c #5E6365",
"g  c #5E6266",
"h  c #5E6366",
"j  c #5F6366",
"k  c #5F6466",
"l  c #5F6467",
"z  c #5D6265",
"x  c #606466",
"c  c #606467",
"v  c #606567",
"b  c #606567",
"n  c #606568",
"m  c #616568",
"M  c #616668",
"N  c #616669",
"B  c #626668",
"V  c #626669",
"C  c #626769",
"Z  c #62676A",
"A  c #63676A",
"S  c #64676A",
"D  c #65676A",
"F  c #616669",
"G  c #63686A",
"H  c #63686B",
"J  c #64686B",
"K  c #64696B",
"L  c #64696C",
"P  c #65696C",
"I  c #656A6C",
"U  c #656A6D",
"Y  c #666A6D",
"T  c #676A6D",
"R  c #666B6D",
"E  c #666B6E",
"W  c #676B6E",
"Q  c #676C6E",
"!  c #676C6F",
"~  c #676D6F",
"^  c #656A6C",
"/  c #686A6D",
"(  c #686B6D",
")  c #686B6E",
"_  c #686C6F",
"`  c #696C6F",
"'  c #686D6F",
"]  c #686D6F",
"[  c #686D70",
"{  c #696D70",
"}  c #696E70",
"|  c #696E71",
" . c #6B6E70",
".. c #6A6F71",
"X. c #6B6F71",
"o. c #6B6F72",
"O. c #6C6F71",
"+. c #696E70",
"@. c #6B7072",
"#. c #6B7073",
"$. c #6C7173",
"%. c #6D7173",
"&. c #6C7174",
"*. c #6D7174",
"=. c #6E7174",
"-. c #6D7274",
";. c #6D7275",
":. c #6E7274",
">. c #6E7375",
",. c #6F7376",
"<. c #6E7476",
"1. c #6F7476",
"2. c #6F7477",
"3. c #6C7173",
"4. c #707376",
"5. c #707577",
"6. c #707577",
"7. c #717578",
"8. c #707678",
"9. c #717678",
"0. c #727678",
"q. c #727679",
"w. c #727779",
"e. c #727779",
"r. c #72787A",
"t. c #73787A",
"y. c #74787A",
"u. c #74797B",
"i. c #75797B",
"p. c #757A7C",
"a. c #757B7D",
"s. c #767A7C",
"d. c #777B7D",
"f. c #767C7F",
"g. c #777D7F",
"h. c #74797B",
"j. c #787C7E",
"k. c #797D7F",
"l. c #777D80",
"z. c #797E80",
"x. c #787E81",
/* pixels */
"  X o o o o o X o o X o X X X   . X X X o X X o X o X o o o X o o X o o o o o o o o o o o . .   o o o o o X o o o o o o O o X   ",
". - 5 9 2 2 1 1 1 1 < , : = % o * : : , , < 1 1 1 1 1 1 1 1 1 1 1 2 2 9 x x x p 9 9 2 2 , : % + ; 1 1 < 1 2 2 9 g g g h g u = . ",
"o 1 5.0.0.0.5.@._ $._ I B u = @ 2 B h l I R R Q $.5.0.0.0.r.0.0.;.4.5.5.p.p.p.p.0.;.$.} ( B , % u _ / ` $.5.r.d.k.k.g.l.l.0.2 o ",
"X , _ O.$.1.1.@.I ( R I B u = % q l q h I c u c } i.i.i.p.r.r.0.$._ _ $...O.O.....R I H B B , & u ( ( ( } -.5.w.5.1.1.0.;..., X ",
"X ; B _ ..@.@.Q Q B q 5 B w * % g l w L R B B R 1.i.p.p.r.5.#.@...$.#...R R R Z I H H I ( ( , & c $._ _ _ K K H L Q ..@...R : X ",
"X - B _ _ ..@.Q H h 2 1 l w * # w Z h B B H R .._ 1.i.p.i.1.~ ....;.;.#.B R ! L H I I Q I B , & B $.} } _ H h h l L Q Q H B - . ",
"X ; c _ .._ } Q l 5 1 1 x 2 * @ 8 B h l l R Q R I $.i.i.r.@.R R I Q #...Z Z Z Z c H _ K c c : % x $._ } K C h a w B L L c u - o ",
"X - B _ _ @.} Q l 8 < 2 9 1 * % 8 H B B H ~ ..R I $.r.r.5...B l B R ..~ L B l l h c I I c u = # 9 _ _ K C h h C g g B B B c - X ",
"X - B Q ~ ~ Q Q L w 8 q 1 1 & # 8 B R ......@.R Q 1.5.1.$...Q R B R ..~ Q H c g l H H u u u - % 5 Q Q B B h B R L H H Q Q I : X ",
"X : H Q R L B R Q L w 1 > > & # 1 R R ! ..o.;...@.5.r.5.1.$._ _ R ~ ....1.;...R R Q Q h u g : % 5 ..~ R R R Q _ Q Q @.$.@.@.< o ",
"X : L H g 5 g H Q L a 1 1 < & # < B R B R ! #.#.@.$.r.i.i.1.$...$.;.#...1.0.4...} } Q C g u ; % 5 @.;.$...~ .._ @.@.0.i.5.4.1 o ",
"X : B l w q g I L H q 2 q 2 & @ > B I B B R ...._ ..;.5.r.0.;...;.5.;...@.1.1.$.@._ Q h x u ; % q @.1.1.@.@.$.$.@.r.g.k.i.5.2 X ",
"X ; g c B B B g w h w 8 1 1 $ + = u I B H H R I B H Q Q ~ ~ H h c R R R R Q ..$.Q Q B g q 2 * @ 1 I _ @...O.;.;.4.i.k.d.1.$.1 o ",
"X = 5 g x u 2 < > < > : - $ @ O @ = 1 2 2 5 5 2 < 1 1 < < < : - = : 1 1 1 5 g g q < < , - % + o # : 2 h B x g u 9 c I ( H c : X ",
". @ = = = * * % # # @ @ + O + @ + @ % % % % * % % % # # @ @ + O O O # # & % * * * $ # @ + O O O O @ $ = - = * % % * = = ; = @   ",
"  o # * * * % % % % % % % * : > - * % % * % % % % % % # @ O X . o O @ # % % & % % $ # # # & - : = % % % % % % % % % % % # + o   ",
". % 2 I ( ( ( ( ( ( ( ( _  .$.4.` _ ( ( I ( ( ( R R ( B 5 ; @ o $ : 5 h B l B B B B B B H I Q Q I B B B L l B B B l l g 1 - @   ",
"X = c _ 4.5.5.5.5.5.5.5.5.i.w.-.5.0.$.$.;.$.$.4.8.8.0.;.R 5 * O = h @.@.Q Q Q Q @.;.@.@.5.5.@._ Q Q ..#.#.| ~ #.~ B l R H 8 % . ",
"X = u h I _ ` $.} @.@.} $.-.$.Q _ } ( H L B I ( ~ R Q Q B q * @ : R 1.L h h C H R Q _ Q $.$.Q h g B R ~ R B B L l 5 5 l R g * X ",
"X = 5 5 u I } _ } } } } _ } _ K ( K I C B B B R l a h l h 5 * @ 1 ..#.l q h H Q H Q _ ..@.@.Q c g H ~ Q L l B B l l w B R B - X ",
". - q 2 2 H _ } } } } } } } H h l l H R R R Z l a 2 < 1 u x ; % 5 ;.@.c g H Q _ Q Q @.1.$.5.1._ R Q .._ Q Q Q Q R B B I @.R - X ",
". = 2 2 2 C _ Q K Q } } } } K a l h l L ! R B l a 2 1 2 2 u ; % g $.Q B h R _ _ ....@.1.5.r.r.1.@.~ $.@.Q Q ;.;.@....._ @.R ; X ",
". = 2 < 1 h _ Q H K } } } @.} H H l h l R B l l a 2 2 8 2 1 = % B @.H h h R @.$.1.;.@.;.r.i.i.r.@...;.1.R ~ 0.0.8.0.1.....( , o ",
". & < < < a Q Q K Q } } } 1.-.} L B g l L w g Z h 1 < 1 1 1 * $ g Q h h h R $.5.r.r.1.@.5.r.r.1.@...;.$.R ~ 8.r.h.8.$._ _ ( ; X ",
". % 2 q 5 w R ..Q Q ..@.@.1.w.} L l h l l w w h h 2 < 1 5 g : % 5 L l h h L @.@.5.-.@.@.@.@.@.@._ Q _ ..R R ..0.0.#.L H R B - o ",
". * q h h H @.;.@...@.1.w.r.w.-.~ Q L L h g g h H B g g h B : % 8 R l q h Q Q H Q } $.$.Q Q @.Q K H H H g g R $.#.~ B l l q *   ",
"X - h H H R @.@.@.@.@.1.r.w.8.1.1.@.@.Q L B B I Q Q Q Q c g ; # 1 H c q h H H l c Q  .$.Q Q } Q H h l l 5 q c I R R l q 7 1 *   ",
". = h l H h H Q Q Q Q ;.1.-.@.@.1.@.Q Q R ..~ Q Q Q Q H u 5 = @ : g g q h H H h C K }  ._ Q Q Q H c H H w q x c l l w 8 8 < * X ",
". % < 1 2 q w g w h a L L L H H H I B l H Q R I h q 1 < 1 > # O * > < 2 h q 2 2 x C B B C c c h u h H c 2 2 9 9 9 5 1 < < : &   ",
"  O @ # % = : : : : > > > > : : : : : : > > < 1 < : - = * # o X O @ $ = : : - : = * * * ; = * & = = : : = * * * * * * % @ @ o   ",
"      . O O O @ # @ @ + o o O o o O + @ # # # # # # @ # O X . X . . . o O # # + O X   X o O o . o O o o o X   X o o X           ",
"  o + @ @ # # # # # # @ + o . . o + @ # # $ # # $ # % % % # % = * % # # # # # # # # + O O O o . O + + # # # @ @ @ # @ @ + + o   ",
"o = u q g B l B c c h 2 < % o o - 2 g I ( { R B B l B L R R ~ ~ } I H I c c I c C c h 2 : ; # O = 1 2 x l B l B B B l h q 1 * X ",
"o , I H ....@.@.@.@.K h 5 : # # 5 ..1.0.p.p.8.~ R L R ~ ..Q ~ ~ } ( @.-.} $.5.5.@.@.@.Q a 1 & # 1 u 8 C L ~ ~ ~ #.;.@.Q R l - X ",
"X : c h H Q Q R H H h 8 1 < * # x $.........~ B l g 8 q 5 q w h a 8 a k h H _ $.Q Q } Q I u = $ 8 8 < 8 w w a h L Q Q L I c : X ",
"X : H H Q Q ..Q H h w 8 2 1 * % B ..g g l c l B L w 8 1 2 5 w q 2 1 < 8 2 a I _ } Q } Q K c = % h H q q 8 q q q h R ......R , X ",
"X , I _ Q ..Q Q K H C h 8 1 & % ( ..x c R L L L B g q 8 1 1 0 1 2 8 2 2 u a H Q } } Q H R c - * C } h q 2 q h h l R ;.0.5..., X ",
"X , K _ Q Q Q Q Q H C H q 2 = % B ..l c L Q R R l l l w 8 1 1 1 q a a h h H H I Q } Q Q _ I , % C -.H u q h k H R R ;.0.y..., X ",
"o : _ } @.~ Q Q H H C C q 2 * $ g R l g w L ~ ~ l l l l q 2 2 q q a h h h I H H K _ _ _ _ I : % a _ I c a h H Q R R ..;.5.( : X ",
"o , K _ ~ #.@.Q h a q q 2 1 * # 5 B g 7 w B R R l l l l a a w q h l h h H H Q H K Q _ Q Q c - # 8 I c C h H L L R R R ....( ; X ",
"X : I C I K K c q 0 1 1 1 < & # 1 g q w g l l l l h l Q Q L H H L H l Q Q ~ @.1.@.@.Q B l w - # 2 H g g h R _ Q ~ R L ~ ....< X ",
"o = c I H c a u 1 1 < < 1 1 $ # 1 g q 5 w l l l h w l ~ @.Q Q H L H Q ~ ~ @.@.-.@.Q Q H h q - # < h g q q H @.;.......~ ...., o ",
"X = C K C 5 1 2 2 1 < 1 0 1 * @ < h h q w l l h h a a L Q Q H H H Q ~ @.Q ~ ~ ~ H H Q L l q * @ : h h w q h R ~ ..! ! ....( , X ",
"X = C I q < < < q 2 1 2 1 < * @ : q l g w w w w l l l L Q L H H H Q ~ Q Q Q Q k w q h l a 8 & @ : q w h B w 5 l R B B ....R : o ",
". : H l 2 1 < 1 g q 5 2 1 > $ O $ : 1 w h q 1 8 l L L L E l h w q h H H h h q < > : < < 1 > # O * < 2 2 5 1 < 5 B Z J R B Z : o ",
". & : : : : : : > < < < : * + . X O $ ; > : - : < 8 1 1 0 < > ; : < > > > > - * * = * & $ + X . + % & * : - - > 1 5 5 1 < < %   ",
"  o @ # # # # @ @ # $ $ @ O . . .   X @ @ @ # @ # # $ $ # # @ @ # # # @ + # + # @ @ + O .       o O + + @ @ @ & # * * # @ @ O   ",
". o + @ # @ @ @ @ # @ # @ @ @ + + + + @ # @ @ @ # @ @ @ @ X .   . . O @ # + # + # @ @ @ O O O O # $ # # @ @ @ @ @ @ # @ @ O     ",
". # : 1 1 1 5 5 2 1 2 2 2 8 2 2 q q 0 q 8 8 q 0 8 q 8 1 : @     . # - 1 q q 0 q 0 0 0 0 1 < > > < < 2 2 w 8 8 q 8 8 8 8 1 - O . ",
"  # : < 5 w q w q 5 q q w w a a l l l l l l l h l l H h 0 * O o * > < a a l k l q l l l f q q 2 2 q q h l L l L Q L H H h 1 # . ",
"  O $ - : < 1 1 < 1 1 2 1 0 8 8 q q a a l a a w a h h w 0 - @ @ < 2 < 1 q w a q 1 1 q s f q 2 2 8 8 2 q l l w w l H h w 5 1 & . ",
". # - : < < < < < 2 2 1 1 8 q 1 1 1 q q a w w w w w q q 1 ; @ @ : < ; > < 1 < < > > < q q q 0 2 8 8 q a l l w 0 w w w q < < & . ",
". $ > < 1 < < 1 1 1 1 1 1 1 q q 2 1 0 0 < < < < 1 1 1 1 > : @ @ : : : > : : : ; > > > > 1 0 1 1 1 q a h w w q 8 1 8 1 1 : : & . ",
". # > 1 < > < < > > > > < 1 0 q 2 1 < < > > > > : : : > > - @ O - > > > : - * * ; > - > 1 1 1 1 1 q h w 0 0 1 > > 1 < : - : $ . ",
". # - : : : - - ; : ; > > < < 0 2 1 < : > : : ; : : : : : * O O : < : : : : - : : : : > > > 1 1 8 w h w < < < : > > : - * = # . ",
". # - - - : : - ; ; > ; > ; : ; < 2 < : > : ; > : : : - - # o O - : - : : : : : < > < < > > > 1 w w w 0 > > > > > > : * * * # . ",
"  @ $ - - - : : ; ; > > - - ; : < < < > > > > > < < < ; $ # o O - : $ $ * ; > > > > < 1 > > 1 1 0 0 2 < < - - > > 1 > - * * @ . ",
"  $ ; - - - : : ; : : > - - : > < > > : : - ; ; > ; : ; - $ O O * & $ $ * - > - ; > < 1 < < 1 1 < 0 1 > > - * - > 1 1 : > - @ . ",
"X $ ; ; ; - : : : : : ; ; $ : 1 < < > - * $ - - : - - $ $ $ O o & & $ $ * * - : ; ; : : > < 1 < > 1 < > > - - > > > 1 1 < ; #   ",
"  # : > : $ - ; - - : - - - ; > < < ; - * * - - : : - $ # $ # o & * * * $ * - - - - - - - : > > ; : > > : * - : : : : < < * @   ",
"  @ $ ; - $ $ - $ ; : : ; $ - - ; ; - $ $ - - $ $ $ # O   X o o # $ $ $ $ $ * - - - $ $ $ $ - $ $ $ ; ; * $ - - : - - $ - $ o . ",
"  @ # $ $ # $ $ $ $ $ $ - $ # $ $ $ $ $ $ $ $ $ # # O .       . O O # # $ $ $ $ $ $ $ # $ # $ $ $ # $ $ # # $ $ $ $ $ # @ X .   ",
"    o @ X o @ @ # @ @ @ @ o o o o O o o o o o o o o .           . . . . o . o o o o o o o o o o o o o o o o o o o o             ",
"                                                                        .   . .                                   .             "
};
