/* XPM */
static char *_1da77eed0f4433a915d7a4ebf2a9c6bkXqXKwAeBpFzQpiE[] = {
/* columns rows colors chars-per-pixel */
"128 128 4 1 ",
"  c None",
". c #000001",
"X c #000001",
"o c #000001",
/* pixels */
"                                                                                                                                ",
"                                                                                                                                ",
"                                                                                                                                ",
"                                                                                                                                ",
"                                                                                                                                ",
"                                                                                                                                ",
"                                                                                                                                ",
"                                                                                                                                ",
"                                                                                                                                ",
"                                                                                                                                ",
"                                                                                                                                ",
"                                                                                                                                ",
"                                                                                                                                ",
"                                                                                                                                ",
"                                                                                                                                ",
"                                                                                                                                ",
"                                                                                                                                ",
"                                                                                                                                ",
"                                                                                                                                ",
"                                                                                                                                ",
"                                                                                                                                ",
"                                                                                                                                ",
"                                                                                                                                ",
"                                                                                                                                ",
"                                                                                                                                ",
"                                                                                                                                ",
"                                                                                                                                ",
"                                                                                                                                ",
"                                                             XXXXXXX                                                            ",
"                                                       XXXXXXXXXXXXXXXXXoX                                                      ",
"                                                   XXXXXXXXXXXXXXXXXXXXXXXXXX                                                   ",
"                                                 XXXXXXXXXX        XXXXXXXXXXXXXo                                               ",
"                                               XXXXXXX          XoXXXXXXXXXXXXXXXXXXXo                                          ",
"                                             XXXXXX          XXXXXXXXXXXoXXXXXXXXXXXXXXXX                                       ",
"                                           XXXXXX          XXXXXXXo                ooXXXXXXX                                    ",
"                                          XXXXX          XXXXXX                        oXXXXXX                                  ",
"                                         XXXX          XXXXXX                            XXXXXX                                 ",
"                                       XXXXX          XXXXX                                XXXXX                                ",
"                                      XXXXX         XXXXX                                    XXXX                               ",
"                                     XXXX          XXXX                                       XXXX                              ",
"                                    XXXX          XXXX                XXXXXXXXXXX               XXX                             ",
"                                   XXXX          XXXX              XXXXXXXXXXXXXXXXX            oXXX                            ",
"                                   XXX          oXXX             XXXXXXXXoXXXXXXXXXXXX           XXXX                           ",
"                                  XXX          XXXX            XXXXXX            XXXXXX           XXX                           ",
"                                 oXX          XXXo           XXXXXX                 XXXXo         XXXX                          ",
"                                XXXX          XXX           XXXXX                    XXXXX         XXX                          ",
"                                XXX          XXX           XXXX                        XXXo        XXX                          ",
"                               XXX          XXX           XXXX                          XXX         XX                          ",
"                              XXXo          XXX          XXXX                            XXX        XXX                         ",
"                              XXX          XXX          XXX                              XXXX       XXX                         ",
"                             XXXo         XXX          XXX                                XXX       XXX                         ",
"                             XXX          XXX         XXXX             XXXXX              XXX       XXX                         ",
"                             XXX         XXX         oXXX            XXXXXXXXX             XXX      XXX                         ",
"                            XXX          XXX         XXX            XXXXXXXXXXX            XXX      XXX                         ",
"                            XXX         XXX         XXX            XXXX     XXXX           XXX      XXX                         ",
"                            XX          XXX         XXX            XXo       XXX           XXX      XXX                         ",
"                           XXX          XX         XXX            XXX         XX            XX     XXX                          ",
"                           XXX         XXX         oXX            XXX        XXX            XX     XXX                          ",
"                           XXX         XXo         XX             XX         XXX            XX     XXX                          ",
"                          XXX          XX         XXX            XXX                       XXX    XXX                           ",
"                          XXX         oXX         XXX            XXX                       oXX    XXX                           ",
"                          XXX         XXX         XXX            XXX                       XXX   XXX                            ",
"                          XXX         XXX        XXX             XXX                      XXX   XXXX                            ",
"                          XX          XX         XXX              XX                      XXX  XXXo                             ",
"                         oXX         XXX         XXX              XXX                    XXXX XXXX                              ",
"                         XXX         XXX         XXX              XXX                    XXX XXXX                               ",
"                         XXX         XXX         XXX               XXX                  XXXXXXXX                                ",
"                         XXX         XXo         XXX               XXXX               XXXXXXXXX                                 ",
"                         XXo         XX          XXX                XXXX             XXXXXXXX                                   ",
"                         XXo         XX          XXX                 XXXXX        XXXXXXXXXX                                    ",
"                         XX          XX          XXX                  XXXXXXXXXXXXXXXXXXX                                       ",
"                         XX         XXX          XXX                    XXXXXXXXXXXXX                                           ",
"                         XX         XXX          XXX                      XoXXXoXX                                              ",
"                         XX         oXX           XX        XXX                                                                 ",
"                         XX         XXX           XXX       XXX                                                                 ",
"                        oXX         XXX           XXX        XXX                                                                ",
"                        XXX          XX           XXX        XXXX                                                               ",
"                        XXX          XX            XXX        XXXX                                                              ",
"                        XXX          XX            XXX         XXXX                                                             ",
"                        XXX          XXX           XXX          XXXX                                                            ",
"                        XXX          XXX            XXX          XXXXX                                                          ",
"                        XXX          XXX            oXXo          XXXXX                                                         ",
"                        XXX           XX             XXX           oXXXXX                                                       ",
"                         XX           XXo             XXX            XXXXXX                                                     ",
"                                      XXX             XXXX             XXXXXX                                                   ",
"                                      XXX              XXX              XXXXXXXX                                                ",
"                                       XXX              XXX                XXXXXXXXX                                            ",
"                                       XXX               XXX                 XXXXXXXXXXXXX                                      ",
"                                        XXo               XXXX                  XXXXXXXXXXXXXXXXooXXXXX                         ",
"                                        XXX                XXXX                     XXXXXXXXXXXXXXXXXXXX                        ",
"                                         XXX                XXXX                            XXXXXoXXXXX                         ",
"                                         XXX                 XXXXX                                                              ",
"                                          XXX                 XXXXX                                                             ",
"                                          XXXX                  XXXXX                                                           ",
"                                           XXXX                  XXXXXX                                                         ",
"                                            XXXX                   XXXXXXX                                                      ",
"                                             XXXX                    XXXXXXXo                                                   ",
"                                              XXXX                     XXXXXXXX                                                 ",
"                                               XXXX                       XXXXXX                                                ",
"                                                 X                           oo                                                 ",
"                                                                                                                                ",
"                                                                                                                                ",
"                                                                                                                                ",
"                                                                                                                                ",
"                                                                                                                                ",
"                                                                                                                                ",
"                                                                                                                                ",
"                                                                                                                                ",
"                                                                                                                                ",
"                                                                                                                                ",
"                                                                                                                                ",
"                                                                                                                                ",
"                                                                                                                                ",
"                                                                                                                                ",
"                                                                                                                                ",
"                                                                                                                                ",
"                                                                                                                                ",
"                                                                                                                                ",
"                                                                                                                                ",
"                                                                                                                                ",
"                                                                                                                                ",
"                                                                                                                                ",
"                                                                                                                                ",
"                                                                                                                                ",
"                                                                                                                                ",
"                                                                                                                                ",
"                                                                                                                                ",
"                                                                                                                                "
};
