/* XPM */
static char *_11a0e1dd4b64cba88195703dd6c7ca6EltCdwXiyNj97iOW[] = {
/* columns rows colors chars-per-pixel */
"64 64 222 2 ",
"   c None",
".  c #1E0700",
"X  c #1D0901",
"o  c #230C02",
"O  c #2C0C01",
"+  c #340E01",
"@  c #3A0F01",
"#  c #241005",
"$  c #2B1303",
"%  c #2A160B",
"&  c #251109",
"*  c #331103",
"=  c #3B1403",
"-  c #3D1904",
";  c #3E2009",
":  c #3D2313",
">  c #430F00",
",  c #421503",
"<  c #4B1603",
"1  c #441A03",
"2  c #4A1C04",
"3  c #451E0B",
"4  c #541A04",
"5  c #5C1A03",
"6  c #541501",
"7  c #631C04",
"8  c #681B03",
"9  c #741D03",
"0  c #4C2202",
"q  c #432209",
"w  c #4B240B",
"e  c #4B2B0C",
"r  c #472805",
"t  c #5B2204",
"y  c #542801",
"u  c #5C2C04",
"i  c #532708",
"p  c #4E340B",
"a  c #4D3207",
"s  c #543503",
"d  c #53340C",
"f  c #5A3909",
"g  c #492B12",
"h  c #5C2E12",
"j  c #4B341B",
"k  c #4D3414",
"l  c #583714",
"z  c #652305",
"x  c #642D05",
"c  c #6B2806",
"v  c #742406",
"b  c #7C2405",
"n  c #712B07",
"m  c #792C07",
"M  c #6D3602",
"N  c #63330C",
"B  c #6D3D09",
"V  c #693A03",
"C  c #733B02",
"Z  c #7A3D03",
"A  c #763606",
"S  c #653A14",
"D  c #662E11",
"F  c #523C28",
"G  c #5E420E",
"H  c #6B4504",
"J  c #664906",
"K  c #62460E",
"L  c #674D09",
"P  c #794508",
"I  c #67530B",
"U  c #785C0F",
"Y  c #795706",
"T  c #6C4511",
"R  c #6C4C15",
"E  c #6D4D18",
"W  c #654716",
"Q  c #734E13",
"!  c #734A19",
"~  c #6B5219",
"^  c #765516",
"/  c #7D6105",
"(  c #7B6009",
")  c #796117",
"_  c #7E6418",
"`  c #5B4328",
"'  c #694723",
"]  c #734D26",
"[  c #6A5227",
"{  c #755425",
"}  c #745C2A",
"|  c #79592C",
" . c #6B5637",
".. c #735E3B",
"X. c #735E35",
"o. c #634E36",
"O. c #7B6529",
"+. c #796425",
"@. c #756335",
"#. c #7E6838",
"$. c #7B6535",
"%. c #862505",
"&. c #8D2D06",
"*. c #822E08",
"=. c #9C2F05",
"-. c #962E06",
";. c #833406",
":. c #873A08",
">. c #923207",
",. c #9C3305",
"<. c #953D0A",
"1. c #A73805",
"2. c #B33B03",
"3. c #BB3C04",
"4. c #B03703",
"5. c #C43D04",
"6. c #8A4B0C",
"7. c #85450A",
"8. c #9D4507",
"9. c #974708",
"0. c #8C540D",
"q. c #855603",
"w. c #985A0C",
"e. c #AA4409",
"r. c #B74708",
"t. c #A25309",
"y. c #A95308",
"u. c #B85709",
"i. c #B35419",
"p. c #836505",
"a. c #8B6905",
"s. c #956E08",
"d. c #856517",
"f. c #996615",
"g. c #977216",
"h. c #A8660C",
"j. c #B46B0D",
"k. c #BB690C",
"l. c #BA770E",
"z. c #B26D1B",
"x. c #A57C12",
"c. c #A97E12",
"v. c #A67711",
"b. c #BB7C11",
"n. c #B77A1B",
"m. c #AC720C",
"M. c #836627",
"N. c #89743A",
"B. c #9B7538",
"V. c #866D32",
"C. c #A67D38",
"Z. c #B37B30",
"A. c #C54203",
"S. c #CC4203",
"D. c #C64C0C",
"F. c #D44305",
"G. c #DB4405",
"H. c #D34F0F",
"J. c #D94707",
"K. c #C45505",
"L. c #C34C11",
"P. c #D24F10",
"I. c #D65408",
"U. c #E44506",
"Y. c #EB4807",
"T. c #F14707",
"R. c #E35809",
"E. c #C7670A",
"W. c #DC6E0C",
"Q. c #CA7A0E",
"!. c #C27A0E",
"~. c #C47814",
"^. c #D47C10",
"/. c #CB773A",
"(. c #D47A3B",
"). c #D27A37",
"_. c #C9762C",
"`. c #887755",
"'. c #B87C45",
"]. c #C17B45",
"[. c #BC820D",
"{. c #AB8111",
"}. c #B58B13",
"|. c #B98915",
" X c #AF9D14",
".X c #AE9515",
"XX c #BE9112",
"oX c #AFA017",
"OX c #908037",
"+X c #AF9F31",
"@X c #AD9233",
"#X c #B2A238",
"$X c #CD870E",
"%X c #CA8311",
"&X c #D48811",
"*X c #C59614",
"=X c #CAA717",
"-X c #D0AC17",
";X c #C09C2A",
":X c #CAAA33",
">X c #D2A935",
",X c #998852",
"<X c #AF9F54",
"1X c #B49D57",
"2X c #B78950",
"3X c #B5A550",
"4X c #B29F6A",
"5X c #AA9C71",
"6X c #B29F71",
"7X c #B2A36A",
"8X c #B1A275",
"9X c #CCAE59",
"0X c #D5AC54",
"qX c #C99961",
"wX c #C7AF73",
"eX c #D3AC74",
"rX c #D8AD71",
"tX c #CCB67B",
"yX c #CFB372",
"uX c #D5B374",
"iX c #D3BA84",
"pX c #D1C28D",
/* pixels */
"                                                                                                                                ",
"                                                                                                                                ",
"                                                                                                                                ",
"                                                                                                                                ",
"                                                                                                                                ",
"                                                                                                                                ",
"                                                                                                                                ",
"                                                                                                                                ",
"                                                                                                                                ",
"                                                                                                                                ",
"                                                                                                                                ",
"                                                                                                                                ",
"                          o O * O o . . o & $ + o . . . . . o . X o . . . o o o * * o X . . o o * $ o                           ",
"                        . + 1 < * O O + + , < < @ O O + @ + + + + + + + + + + , 3 < = O O O O * < < + X                         ",
"                        o , 7 5 < * = , < 4 z z < = = < 6 < < < < 6 < < 6 6 6 5 z 7 < @ = = * < 7 7 , o                         ",
"                        O < b b 5 < 2 4 t n :.;.t 1 < 5 5 5 5 5 7 5 5 5 6 7 5 c :.;.t 2 < < < 5 %.9 < o                         ",
"                        O 5 >.,.v 4 5 5 c ;.y.t.A 4 5 7 8 8 8 8 8 8 8 8 8 8 v ;.y.w.A 4 4 5 5 v =.-.5 O                         ",
"                        O z 1.r.;.z 8 9 b 8.k.j.7.x z 9 9 9 9 9 9 9 9 9 9 9 b 8.k.j.7.x 7 z z ;.e.1.z o                         ",
"                        o x y.u.7.n v %.-.y.Q.l.6.n 9 %.%.%.%.%.%.%.%.%.%.%.>.y.Q.l.6.c v v c :.u.y.x O                         ",
"                        $ V h.k.8.;.&.-.1.u.$Xb.6.D b &.-.=.=.=.=.=.=.=.=.=.1.u.^.b.0.m b *.m 6.j.h.N $                         ",
"                        # H m.!.y.,.1.4.2.K.$Xb.0.A *.-.1.4.2.5.3.3.2.4.4.2.r.E.%Xn.6.;.&.&.m 0.l.m.V #                         ",
"                        $ H {.$Xi.1.2.5.A.K.k.c.f.0.9.,.4.5.5.5.5.5.5.5.r.K.E.Q.!.h.6.;.,.1.:.w.|.{.J $                         ",
"                        $ L  X=Xj.r.5.F.S.r.t.h.{.x.t.e.2.5.5.Y.U.G.S.A.K.E.$X|.h.6.;.,.1.1.<.h.*X.XJ $                         ",
"                        $ I oXoXj.r.F.U.F.r.8.w.x..Xb.u.r.5.U.Y.T.U.J.K.E.%X*X{.0.*.-.1.3.3.1.j.=X XL $                         ",
"                        $ I oX-Xb.K.G.Y.U.5.3.e.w.x.}.|.k.r.G.Y.T.U.J.E.$XXXv.q.:.&.1.5.5.5.3.j.=X XI %                         ",
"                        % I oX-X[.u.J.T.T.U.G.2.9.w.x.}.b.u.P.G.U.R.W.$X*X{.0.:.-.1.5.5.U.U.r.l.=X XI $                         ",
"                        # I oX-X[.u.J.Y.T.T.Y.5.r.9.w.v.|.%XE.P.I.W.&X*Xx.0.:.>.1.3.5.U.Y.J.r.b.-XoXI $                         ",
"                        % ~ +X:X|.u.S.G.Y.U.U.G.5.1.9.w.x.}.n.~.&X&X*X{.0.:.>.,.3.5.U.U.U.S.i.n.:X+X~ %                         ",
"                        % [ <X9XZ.i.D.H.H.H.J.H.D.r.e.w.f.v..X-X-X;Xx.0.6.<.e.i.5.L.P.H.H.L.i.@X9X3X[ %                         ",
"                        %  .6XiXqX].(.].(.(.(.(.)._.~.z.f.g.}.=X-X|.g.d.f.z._./.(.(.(.(.(.].].qXtX7X .%                         ",
"                        % o.5XpXiXeXrXrXrXrXrXrXrX0X>X;X@XC.Z.z.n.Z.C.@X@X:X0XeXrXrXrXrXrXeXwXiXpX5Xo.%                         ",
"                        & F `.5X8X6X6X6X6X6X6X6X7X3X#X#X1X1X2X'.'.2X1X3X#X@X<X4X6X6X6X6X6X6X8X5X5X`.` &                         ",
"                        X : `  .......@.........@.+.+.OX7XtXtXeXeXeXtX7XOX+.} ..@...........@... .` : #                         ",
"                        X - s G G K K K K K K K K G W O.,X8XwXyXyXwX6X,XO.L K K G L K K K K W K G p - X                         ",
"                        o r J / / / / / p.p./ / ( ( ( U } $.B.C.C.B.V.} U ( / / / / p.p./ / / / Y J ; #                         ",
"                        # r P a.a./ / a.a.s.p.p./ / Y L s i N P T D i d L Y / / / p.s.s.s.p.p.p.a.Y r o                         ",
"                        o 0 H Y H f s H q.q.H s s s s r - - 1 0 2 1 = - r s s s s H q.q.Y H H H q.H 0 o                         ",
"                        o 0 C C y = r u C C y = - * * ; q - = * + = 1 = * = = - - y C 7.M w 1 y C C 0 o                         ",
"                        o 2 M M 0 = - u C M 0 = = = * ; l l e * * 1 u u 1 @ , > = 4 C C x < = 0 M M 1 o                         ",
"                        o q B B 0 = 1 x Z C 2 = - - = e T E W l d N C M 2 > < 6 < t C Z N < = i B B 0 o                         ",
"                        o e T T i - 2 x Z C 2 = - , = 3 B d.| } ~ Q 7.M 2 , 6 6 4 x Z Z x 2 = i T T e o                         ",
"                        o e E E e = 2 x Z M 0 = , , = 3 D S [ { { R B u , > 6 5 5 x Z Z x 2 - g E W e o                         ",
"                        o e W E d - 3 x Z M 4 = > , @ @ , w g k e e 0 - @ > 6 5 t M Z Z x 2 = d E E e o                         ",
"                        o e E E e = 2 x Z C 0 - 3 3 , @ + + $ * * O + + @ 6 6 5 t x :.Z x 3 = e E E e o                         ",
"                        o e E E e - 2 x Z M 2 = , 4 4 3 @ O O O O O + @ < 4 5 5 5 x Z Z N < = d E E e o                         ",
"                        o g E E e , 2 N P B y = , i h h 3 = + + * + = 3 h D z < 0 u P 7.N 3 - e E E e o                         ",
"                        # e E ~ l q w S ^ Q d = - j ' ] l g 3 3 w 3 w l ] ] h 2 2 f ! ^ S i q d ~ E e X                         ",
"                        o g ^ ^ L S T | M.+.R f l S ] M.] ' ' ' ' ' ' ] | ] S k f R M.M.| T G R ^ ~ e #                         ",
"                        o e E _ d._ O.V.N.N._ ( ~ ! ! ] X.$.V.#.#.#.$.X.] ! R Q ( d.N.N.V.O._ d.d.~ e o                         ",
"                        o ; G Q U ) +.@.O.+.) U Q K h S ' X...@.X...X.' D N K Q ( _ +.@.@.+.) U ^ l ; o                         ",
"                        X $ ; e a p k j j k p s e 3 , - g j j j j j j g 3 - q e a p k j j k p a e - $ X                         ",
"                          X o X # # # & % # # # o o o o o # & # o & & o o o o # # # # # # $ # # # o X                           ",
"                                                                                                                                ",
"                                                                                                                                ",
"                                                                                                                                ",
"                                                                                                                                ",
"                                                                                                                                ",
"                                                                                                                                ",
"                                                                                                                                ",
"                                                                                                                                ",
"                                                                                                                                ",
"                                                                                                                                ",
"                                                                                                                                ",
"                                                                                                                                "
};
