/* XPM */
static char *_d88095a03f84b978ea8ccfb16768d30CMzRYrlKZnK6O73S[] = {
/* columns rows colors chars-per-pixel */
"64 64 195 2 ",
"   c #1F1F22",
".  c #1F2126",
"X  c #232425",
"o  c #24242A",
"O  c #28272E",
"+  c #262A2B",
"@  c #292A2B",
"#  c #272631",
"$  c #282731",
"%  c #262830",
"&  c #2C2D33",
"*  c #2E2C38",
"=  c #302F35",
"-  c #312F3A",
";  c #2D3234",
":  c #2F3238",
">  c #313336",
",  c #34353B",
"<  c #35393C",
"1  c #393A3E",
"2  c #363441",
"3  c #393742",
"4  c #363B41",
"5  c #3B3D43",
"6  c #3F3F49",
"7  c #403F47",
"8  c #413E4B",
"9  c #443E51",
"0  c #3A4042",
"q  c #3B4043",
"w  c #394041",
"e  c #3D4043",
"r  c #394044",
"t  c #3A4245",
"y  c #3B4046",
"u  c #3B4246",
"i  c #3C4044",
"p  c #3D4045",
"a  c #3D4145",
"s  c #3E4045",
"d  c #3C4345",
"f  c #3C4147",
"g  c #3E4046",
"h  c #3F4047",
"j  c #3E4147",
"k  c #3E4346",
"l  c #3D4145",
"z  c #3F4048",
"x  c #3D4248",
"c  c #3F4349",
"v  c #3D424A",
"b  c #3F434A",
"n  c #3D4148",
"m  c #3F4448",
"M  c #3D444A",
"N  c #3F444B",
"B  c #3F464D",
"V  c #3E4249",
"C  c #414346",
"Z  c #414047",
"A  c #404048",
"S  c #404149",
"D  c #414149",
"F  c #414249",
"G  c #40424A",
"H  c #40434B",
"J  c #41434A",
"K  c #42434B",
"L  c #43414B",
"P  c #40454A",
"I  c #42454B",
"U  c #40474B",
"Y  c #43464A",
"T  c #43414C",
"R  c #40444C",
"E  c #41444C",
"W  c #40454D",
"Q  c #41454D",
"!  c #41454C",
"~  c #42444C",
"^  c #40474C",
"/  c #42464D",
"(  c #41464E",
")  c #42474E",
"_  c #44474D",
"`  c #41424A",
"'  c #49464E",
"]  c #42484B",
"[  c #42484E",
"{  c #42484D",
"}  c #46494F",
"|  c #46484E",
" . c #474B4F",
".. c #45494D",
"X. c #444A4D",
"o. c #4A494F",
"O. c #464352",
"+. c #494555",
"@. c #424850",
"#. c #454B51",
"$. c #444A52",
"%. c #474B50",
"&. c #474E52",
"*. c #474D50",
"=. c #474E54",
"-. c #454B51",
";. c #484C50",
":. c #4A4F51",
">. c #494D52",
",. c #484D52",
"<. c #484F53",
"1. c #4A4E53",
"2. c #484F54",
"3. c #4B4C52",
"4. c #4D4B5A",
"5. c #514F55",
"6. c #514B5D",
"7. c #4B5153",
"8. c #4B5155",
"9. c #4A5054",
"0. c #4B5256",
"q. c #4C5155",
"w. c #4E5357",
"e. c #4B5155",
"r. c #4E5558",
"t. c #4D5558",
"y. c #4D5458",
"u. c #515056",
"i. c #53535B",
"p. c #5D575F",
"a. c #51585A",
"s. c #544D63",
"d. c #565262",
"f. c #595565",
"g. c #565861",
"h. c #5B5A66",
"j. c #5B546A",
"k. c #5E596B",
"l. c #605A65",
"z. c #615C6E",
"x. c #635D71",
"c. c #695F74",
"v. c #63626A",
"b. c #6B676F",
"n. c #666173",
"m. c #6A6476",
"M. c #6D6A72",
"N. c #6E6578",
"B. c #6F6B7A",
"V. c #736D75",
"C. c #70677A",
"Z. c #726C7C",
"A. c #717076",
"S. c #74727C",
"D. c #79757D",
"F. c #7B7A7F",
"G. c #757180",
"H. c #7A7483",
"J. c #7E7B83",
"K. c #817786",
"L. c #827D83",
"P. c #857C89",
"I. c #887F8C",
"U. c #858286",
"Y. c #858389",
"T. c #8A848D",
"R. c #8A898D",
"E. c #8D8691",
"W. c #8D8A91",
"Q. c #938C94",
"!. c #988F96",
"~. c #988F98",
"^. c #979097",
"/. c #959199",
"(. c #9C959C",
"). c #9D999E",
"_. c #A0979E",
"`. c #A1999F",
"'. c #9D9AA2",
"]. c #A39CA2",
"[. c #AA9EA5",
"{. c #A4A1A5",
"}. c #A9A1A7",
"|. c #A6A5A9",
" X c #ABA4A9",
".X c #AEAAAD",
"XX c #B1A5AB",
"oX c #B1AAAF",
"OX c #AFADB0",
"+X c #B4AEB2",
"@X c #B4B2B4",
"#X c #B9B5B7",
"$X c #B7B6B8",
"%X c #BAB7B9",
"&X c #BBBABB",
/* pixels */
"z z M M u 0 w w w 0 6 6 Z 7 A H R $.-.R 5 < , , > = > > < 4 0 0 w 4 < 1 < , , > < < e Y q.u.=.X.v H @.2.w.w.| 6 1 , < < < 5 A R ",
"6 6 z u 0 0 1 w w 0 d A d 7 A A H -.@.H 6 4 , , , > > > < 1 0 0 0 w w 1 < > , 1 e C C o.0.0.=.R H A H -.q.q.1.U 3 < > < < 1 d M ",
"5 5 5 5 3 4 1 0 4 0 d 7 A A A A R R R R v 6 4 , , , , > < < 1 0 0 w 1 < < , 1 7 Y 1.7.1.7.$.R A A A H R | 1.1.1.X.u < > < 1 1 5 ",
"3 2 < 4 < 5 4 4 0 0 0 d A A A H A R A M z 5 4 < 1 1 < < , : < 4 5 0 w 1 1 3 d Y 1.7.7.1.X.X.U A A A H A R | 1.7.1.N 4 < , < 1 e ",
"3 < 1 , 3 3 1 1 1 0 5 d d A A A R R A z 5 3 < < 3 5 1 < : : < < 5 0 0 1 1 k X. .o.] ] Y U z A A A A A H R _ | 1.e.7.B w < < 0 U ",
"3 3 1 3 3 3 0 w w 0 0 5 6 7 A H R R R z 5 , , < 1 1 < > : : ; : < 1 5 5 k ] X.1.R d d d d z z 7 A A A H H R U +.1.e.-.B w w d M ",
"6 6 5 5 e e 0 w 0 0 6 d A A A H R $.-.A 5 < , , , , : ; ; ; ; ; , , < 5 A _ X.| A Z 5 6 d 6 d 7 A A A A H H A _ | 1.e.2.N u 5 5 ",
"5 7 L L Z 5 5 1 0 0 d z A A A H R R $.U Z 7 4 4 > : ; ; ; + ; ; : , , 1 d U R U A d Z d 0 5 d d A A A A 7 A A A U | e.0.2.$.6 4 ",
"5 7 _ +.L 5 1 1 e d z A A A A A R R $.-.$.R N 5 , ; ; ; ; ; ; ; & : > , 4 5 u 6 6 5 6 5 4 w 1 0 5 5 6 A A A A z A R -.e.0.2.@.z ",
"1 7 O.+.A 7 5 5 d z R A A A A A A A R R $.$.N 6 , ; + ; ; ; ; ; : ; & > , < 4 , : 4 , : > > : > , < 6 7 A A A z A A R 1.e.e.e.=.",
"1 7 A H H A 6 d A N H A A z A A Z A A R N R z 4 , : ; ; ; ; > > ; ; : : : : & & * = * & & & ; @ & * 2 d A A 6 z A A A R @.2.y.r.",
"1 1 3 6 d A d Z z z z z z z z A U M z d M u 5 < , , < < < > , , ; ; ; ; : ; O = 7 3.3._ Z Z Z 1 & $ , 6 A z 6 6 d 6 d A H =.i.g.",
"3 3 1 < < 1 Z Z y z N z k d 6 z A U 6 0 5 1 1 , r w t y N y 5 < < > ; ; ; ; O d v.F.F.D.b.b.M.p.3 & , 7 R z z 5 5 e u d H +.i.d.",
"L 7 3 , , < 1 5 5 6 N M M d d A d 7 5 1 < , < 5 t M B B B B d u w w < : : % & 1.U.}. X(.R.R.Q.A.' = , 6 R z d 5 5 5 u d R @.=.4.",
"7.| 6 < , < < 1 6 d M U M z A z 7 5 1 < < < 5 Z X.-.$.N N N z z d d w , : ; & 4.R.+X#X X(./.(.J.3.= , 5 A A 6 6 d d z z z A H R ",
"w.q.| d 1 < < < 1 6 M M z A z d 7 7 1 , , 1 U -.q.1.$.y 4 4 4 < w 4 , ; ; + % 2.U.oX$XOX{.(.(.F.' - 2 5 7 7 d z 6 7 z A z d 6 d ",
"e.e.4.=.B d 4 < < w w w d d u u 3 < , < 1 d o.2.2.-.A 5 * & & > > > > = $ o O ' L..X#X+X|.).W.A.T = , 6 7 7 A A A A A A A z d 5 ",
"4.4.y.y.0.@.6 < < < w w B m u 4 4 < < 3 6 _ 1.1.-.@.z , % * 7 o.4.5.' L 7 , = 3.L. X@XoX{.'.W.A.Y = , 5 7 d z z z A A A A d d 0 ",
"4.4.0.0.r.1.U 3 < < < w d t 4 < < , 2 Z | 1.1.| N N 6 4 & 3 l.F.U.U.F.V.l.3.5 5.U. XoX}.).).).F.3.- , 6 A Z 6 d d A A A 7 d 6 d ",
"4.4.$.=.e.q. .Y w w ; < w w < , > < 6 R 1.e.| R N v y : * o.F.`.oX X_.W.J.l.C o.F.]. X)./.(.'.Y.5.- - 5 7 d 5 e 6 A A A A Z 7 6 ",
"+.O.H -._ 1.q.1.B w w ; > > > > : w ] <.-.X.N N z z 6 2 > 5.Y.XX$X+X).^.L.v.C o.A.(.].`.^.).{.Y.5.= , 5 7 7 6 6 Z A M z A A A A ",
"A H A A L | 2.e.<.d < ; ; ; ; > w m X.-.M 4 4 4 4 4 : : & 5.U.oX&X+X).^.U.b.' o.A.(. X].`.].{.Y.5.> , 6 A 8 d 6 d d M M z z z A ",
"A A A A A _ -.e.t.B w ; ; ; > w d <.@.M : & * : > * & $ O ' L.}.@X@X{.).Q.V.o.5.L.|.@XoX}.}. XY.5.- , 7 A A A 6 d 6 u u 0 6 d A ",
"A A A A A R R -.7.B w w ; ; w ] :.<.B 4 : & 6 %.3.L 6 > & 7 C.~. XXX}.(.Q.V.5.a.R.+X&X@X X}.{.U.4., 3 7 H 7 z d e 0 0 e 0 6 d A ",
"A A A U H H H R | | M u < w B &.<.*.d , & 5 b.F.L.V.b.o., 5 l.P.`.[.(.Q.T.b.o.i.R.@X&X@X{.'.).L.+., 7 T L 7 e Z e d d 6 e 6 d 7 ",
"A A H A H H A z A R U M k m *.&.X.M w ; > o.U.].`.!.L.h.6 7 z.I.(.]._.E.L.z.o.i.W.@X&X$X|.{.'.U.5.- 2 8 7 d e 1 5 6 5 6 d 7 A 7 ",
"A H H R U d d d 7 d 6 d ] X.$.R t 5 < ; ; 1.Y. X X(.Y.v.Y 3.S.(.[.[.].~.U.v.Y u.Y.OX$X+XOX|.{.J.o.= = , 3 5 5 7 0 0 0 d z A A A ",
"A A H H A 6 5 e 5 5 3 5 u z 4 < , : ; % &  .F.).`.^.U.v.Y u.Y. XXXXX[.~.Y.v.L o.G./.'.'.'.'./.B.L O @ = , , 1 e 1 4 5 0 z A A A ",
"A A z A z d 3 3 1 1 1 , : & > > : & O o O L A.Q.^.W.J.v.R i.R.XXXXXX[.(.Y.v.Z 6 j.G.H.H.H.H.Z.j.3 O @ = = > , < < 2 < u z M A A ",
"d z Z d 6 6 3 1 , 1 1 , & > 7 3.%.R 7 = & L A.R.Q.W.J.v._ u.U.XXXX[.].^.P.v.6 , +.j.z.z.z.z.j.+.- O & > & @ & = > > < 3 y M A d ",
"6 0 0 0 5 6 1 1 1 5 U 5 > 7 v.F.L.S.b.5.3 1.F.`.].^.U.v.Y 5.L.[.XX[.(.Q.U.v.7 , 9 s.j.j.j.j.s.9 - O = > @ @ @ O * = > 2 3 d d 6 ",
"w w 5 5 1 1 1 < 3 U  .C < 3.L.`.}.(.T.v.' u.U.}.oX].T.v.L 5.L.}.oX X'.(.W.B.T 3 +.z.x.x.x.z.s.9 = @ & = @ + X @ O & : , < 5 5 4 ",
"w e 1 1 , > < w U -.7.] 1 o.U. X+XXX_.V.5.u.U. X+X XT.b.T 5.L.|.+XoXOX{.'.H.e.z d.m.Z.B.B.m.j.O.* # % ; @ + + + + @ ; > > < w 1 ",
"e e 1 < > , < k X.e.7.d , 5.L. X@X.X_.V.o.u.L. X+X XQ.M.+.%.S.^.'.'.'.'./.G.i.+.h.N.Z.B.B.m.j.9 * . . + + @ + @ @ + @ @ > > < w ",
"e 1 < > < 1 0 X.e.0...1 , 5.Y.XXoX}.Q.b.o.u.Y. X+XXX_.V.' A h.S.H.H.H.H.H.C.k.d.k.c.n.n.m.z.j.O.& . . + + @ @ @ X X @ @ @ > < 1 ",
"w 1 < < e C :.e.0.7.e > > 7.Y..XoX`.T.v.' p.R.oXoX[.~.V.' 5 6.z.x.x.N.B.Z.Z.C.N.n.x.z.x.B.B.n.4., . . X + @ @ X X X X @ @ > < 1 ",
"1 1 1 e ..7.r.0.<.X.0 > = 1.U. XXX_.U.v.' i.R.oXoX[.Q.V.T 6 s.x.x.x.N.Z.I.I.I.P.G.N.x.N.H.K.S.g., .   X + + @ X X X X + + @ > , ",
"1 1 Z  .w.a.a.e.X.k 1 : & T S.^._._.T.b.o.i.R.oX+XXX/.V.@.5 i.z.x.z.N.K.P.T.I.P.G.N.n.N.P.E.J.v.3 o   X + + @ @ @ @ @ + X X @ & ",
"< 1 ] 7.a.a.0.-.z 6 5 > & 5 z.J.E.Q.Q.V.1.i.Y..X@X.X].F.=.6 4.k.x.z.c.C.C.Z.H.C.N.n.k.N.J.Y.J.h.3 .   X X @ X @ @ @ @ + X X @ @ ",
", w C :.w.0.-.R z 6 5 > & 5 z.J.T.!.E.V.%.1.S./.'.'./.D.d.+.d.n.C.C.C.C.c.N.C.C.N.n.m.B.H.J.Z.g.< o   o + X @ @ @ @ @ @ X X O @ ",
"< < w w M X.X.M d 7 5 , = T S.^.`._.R.b.' 8 f.Z.H.H.G.G.s.s.x.G.P.I.I.K.N.N.H.K.H.Z.Z.G.H.G.m.4.= X X X @ X @ @ X @ @ + X X @ ; ",
"1 < < < w 0 z y 6 d 5 , - 5.Y. XXX_.Y.v.7 , +.j.k.k.k.j.j.k.G.Y.Q.~.~.I.C.N.H.K.H.Z.Z.Z.B.N.k.$.= X X @ @ @ X @ X @ @ @ X @ ; > ",
"C 1 < > < 1 5 u 5 6 5 , > u.R..XXX`.T.b.7 , 9 s.j.j.j.j.j.x.G.H.T.T.I.K.m.x.m.B.N.n.n.n.n.x.j.+.= X X X X @ @ X @ @ X @ @ @ > 1 ",
"X.] 1 > , , 1 4 5 6 5 < * u.R..X+X X!.A.T 3 6.j.j.j.z.n.x.G.m.G.G.G.Z.C.x.k.x.m.n.x.k.x.x.n.k.$.= X X X X X X X X @ @ X @ @ 1 1 ",
"w.X.d < , , < 1 5 Z 5 , : 4.Y.|.@X.X{.J.5.H d.z.z.z.m.B.B.N.m.n.c.x.n.k.k.x.m.B.Z.n.k.x.c.G.m.d., X X X X X X X X @ @ @ @ > 1 1 ",
"w.7.Y C 1 , , < 1 5 5 , & $.S./.'.'.Q.G.i.3.f.n.v.x.m.B.B.N.z.j.k.j.j.j.j.k.m.B.B.N.x.x.n.N.m.s.1 X X X X X X X X X X @ > , > 1 ",
"X.*. . .C w , < < 1 3 > & 3 f.G.H.H.G.m.g.i.h.z.k.h.z.x.n.z.j.j.f.h.j.j.h.h.z.n.x.k.k.j.z.x.k.6.- X X X X   X X X X @ @ > > 1 1 ",
"d m  .7. .C 1 , , < < - $ > +.j.k.k.k.h.h.h.k.v.k.j.f.j.j.j.j.d.f.h.k.v.h.h.j.j.j.j.j.j.j.j.s.9 * X X X X X   X X @ = > > > 1 > ",
"w d ] :.7.-.] w < < , ; + * 6 s.s.s.s.s.s.f.n.v.h.d.s.s.s.s.s.s.d.f.n.k.k.s.s.s.s.s.s.s.s.s.6.6 * X X X       X @ @ > > > > 1 1 ",
"w w d ] 2.e.<.B t , ; % . % 2 6 9 9 9 9 9 4.6.i.+.O.9 9 9 9 9 9 O.4.i.d.4.9 B O.9 9 9 9 9 9 6 2 $       X X X @ = < 1 > 1 1 1 1 ",
"1 1 w C $.2.0.e.B t , % # . # * * * * = - - 2 , 2 * * * * * * * * * 2 2 2 * : * * * 2 # 2 # * % X     X X X @ @ > 1 1 1 1 e C Z ",
"e 1 w d X.@.0.y.y.&.t < # . #   o o o + O o O O . o . . . o . . . . . . . . . . . . . # .   . .     X X X @ @ > , e 1 e 7 Z Z 7 ",
"e e 6 d A R 1.e.r.r.1.z 2 % % o + + ; ; ; @ % @ % + X X o o + o o . . X . + + + # # $ O o . o + # O X + @ ; , 1 1 1 5 z Z A A A ",
"7 7 7 7 A U R =.e.r.e.-.v 4 : % @ ; < w 1 < < < : : > & ; > ; : ; & @ + & ; , : * * > * & @ ; @ O O @ ; < w d d d 6 d A Z U U A ",
"Z Z Z d Z 7 A R | -.=.=.=.v < ; ; < d ] k t k d 5 4 1 < < 1 5 t d 1 > > , < 5 u y 5 5 2 , : : : = & ; , d ] ] d A A A A H A A A ",
"Z Z d 6 Z d A A A H @.$.+.N 4 : ; > t ] k k R R M z 6 6 7 Z M X.$.C 1 < < 5 y M $.N z 5 < , < : = @ ; < C *.X.B U U R H A A A A ",
"Z 6 e 0 5 u 6 d A H R @.@.H 3 < ; : < w w d A R A z A 6 A M N $.-.U w > < < 1 d X.X.M 5 < , ; ; ; @ ; < e ] C C z z U z M z z d ",
"d d 0 w 0 0 e e z z M R H 7 u 1 < , > < 1 0 A A A z 6 d d N R $.X.M w , : > , 5 d d e < , * ; + ; ; ; < w e w w d M z M z d d 6 ",
"7 6 0 0 w w 0 0 u d z z A 7 d 6 4 4 , , < 1 6 Z N M 6 5 6 M R $.M 0 < ; ; ; > < w < < < > : ; ; @ ; ; > < 1 1 1 6 6 e 0 d 0 5 5 ",
"6 d 0 w w w w 5 0 d 6 Z A 7 d 6 z 5 < , , 1 1 d M z 5 6 d d U U u 1 < < > > , , < < > > : & ; ; < < 1 > > > 1 1 6 5 5 0 5 1 5 5 ",
"6 6 5 w w 1 w 5 6 d A A A A A A M d 5 < , , < 5 0 u z M z A z 6 5 4 5 0 w , , > > > > < ; ; ; w d d d w > > < 1 5 5 5 5 1 1 5 1 ",
"Z d e 0 w w 4 0 6 Z A A A A A M M k u 1 1 < < 1 5 0 d M d d d 5 1 3 d Z w < < > ; ; > ; ; w w d *.:.*.d 1 < < 1 1 5 3 1 4 3 < 4 ",
"A Z d 5 0 w 1 5 5 6 A A A A A z u u d 5 1 1 1 < 1 5 z d u 5 3 3 3 4 1 e 1 1 < > ; ; ; ; w d B <.<.7.t.*.C 1 , 1 1 1 1 3 3 3 3 3 ",
"A A 7 d 0 0 0 0 e 6 A A A A A d 5 6 d 0 0 5 1 3 1 3 6 6 0 5 5 1 3 1 1 1 1 > > > ; ; ; w d B t.t.e.7.a.:.C 1 1 , 1 1 < 3 1 < 3 1 "
};
